<svg width="70" height="70" viewBox="0 0 70 70" fill="none" xmlns="http://www.w3.org/2000/svg">
<rect width="70" height="70" rx="20" fill="#0A909B"/>
<path d="M49.8359 25.5078H48.7812V24.4531C48.7812 22.7085 47.3619 21.2891 45.6172 21.2891H22.2734C20.5288 21.2891 19.1094 22.7085 19.1094 24.4531V42.3828H18.0547C17.4722 42.3828 17 42.855 17 43.4375V45.5469C17 47.2915 18.4194 48.7109 20.1641 48.7109H49.8359C51.5806 48.7109 53 47.2915 53 45.5469V28.6719C53 26.9272 51.5806 25.5078 49.8359 25.5078ZM21.2188 24.4531C21.2188 23.8716 21.6919 23.3984 22.2734 23.3984H45.6172C46.1987 23.3984 46.6719 23.8716 46.6719 24.4531V25.5078H41.3984C39.6538 25.5078 38.2344 26.9272 38.2344 28.6719V42.3828H21.2188V24.4531ZM19.1094 45.5469V44.4922H38.2344V45.5469C38.2344 45.9166 38.2987 46.2714 38.4158 46.6016H20.1641C19.5825 46.6016 19.1094 46.1284 19.1094 45.5469ZM50.8906 45.5469C50.8906 46.1284 50.4175 46.6016 49.8359 46.6016H41.3984C40.8169 46.6016 40.3438 46.1284 40.3438 45.5469V28.6719C40.3438 28.0903 40.8169 27.6172 41.3984 27.6172H49.8359C50.4175 27.6172 50.8906 28.0903 50.8906 28.6719V45.5469Z" fill="white"/>
<path d="M46.6719 42.3828H44.5625C43.98 42.3828 43.5078 42.855 43.5078 43.4375C43.5078 44.02 43.98 44.4922 44.5625 44.4922H46.6719C47.2543 44.4922 47.7266 44.02 47.7266 43.4375C47.7266 42.855 47.2543 42.3828 46.6719 42.3828Z" fill="white"/>
<path d="M45.6172 31.8359C46.1997 31.8359 46.6719 31.3637 46.6719 30.7812C46.6719 30.1988 46.1997 29.7266 45.6172 29.7266C45.0347 29.7266 44.5625 30.1988 44.5625 30.7812C44.5625 31.3637 45.0347 31.8359 45.6172 31.8359Z" fill="white"/>
</svg>
