<svg width="70" height="70" viewBox="0 0 70 70" fill="none" xmlns="http://www.w3.org/2000/svg">
<rect width="70" height="70" rx="20" fill="#0B1427"/>
<g clip-path="url(#clip0_777_1636)">
<path d="M36.0312 35C36.0312 36.6477 37.3718 37.9883 39.0195 37.9883C40.6673 37.9883 42.0078 36.6477 42.0078 35C42.0078 33.3523 40.6673 32.0117 39.0195 32.0117C37.3718 32.0117 36.0312 33.3523 36.0312 35ZM40.0156 35C40.0156 35.5492 39.5688 35.9961 39.0195 35.9961C38.4703 35.9961 38.0234 35.5492 38.0234 35C38.0234 34.4508 38.4703 34.0039 39.0195 34.0039C39.5688 34.0039 40.0156 34.4508 40.0156 35Z" fill="white"/>
<path d="M22.0859 20.9883V49.0117C22.0859 50.6595 23.4265 52 25.0742 52H37.0273C38.6751 52 40.0156 50.6595 40.0156 49.0117V43.9648H41.0117C41.5618 43.9648 42.0078 43.5189 42.0078 42.9688V41.2723C42.3368 41.1148 42.653 40.9312 42.9547 40.7225L44.4266 41.5723C44.9026 41.8472 45.5122 41.6841 45.7873 41.2077L47.7794 37.7571C48.0544 37.281 47.8912 36.6714 47.4149 36.3965L45.9657 35.5598C45.9835 35.3672 45.9922 35.1814 45.9922 35.0001C45.9922 34.8187 45.9834 34.6329 45.9657 34.4403L47.4149 33.6037C47.891 33.3288 48.0545 32.7193 47.7794 32.243L45.7873 28.7924C45.5123 28.3163 44.903 28.1529 44.4266 28.4278L42.9547 29.2777C42.653 29.069 42.3368 28.8854 42.0078 28.7279V27.0312C42.0078 26.4811 41.5618 26.0352 41.0117 26.0352H40.0156V20.9883C40.0156 19.3405 38.6751 18 37.0273 18H25.0742C23.4265 18 22.0859 19.3405 22.0859 20.9883ZM37.0273 50.0078H25.0742C24.525 50.0078 24.0781 49.561 24.0781 49.0117V47.8443C24.3899 47.9549 24.7251 48.0156 25.0742 48.0156H37.0273C37.3766 48.0156 37.7117 47.9549 38.0234 47.8443V49.0117C38.0234 49.561 37.5767 50.0078 37.0273 50.0078ZM40.6772 30.3288C41.2425 30.5303 41.765 30.8337 42.2301 31.2306C42.551 31.5044 43.0095 31.5464 43.3747 31.3355L44.5601 30.6511L45.5562 32.3763L44.3883 33.0505C44.0229 33.2614 43.8301 33.6796 43.9069 34.0945C43.9705 34.4378 44 34.7255 44 34.9999C44 35.2744 43.9705 35.5621 43.9069 35.9054C43.8301 36.3203 44.0229 36.7384 44.3883 36.9494L45.5562 37.6236L44.5601 39.3489L43.3747 38.6645C43.0094 38.4536 42.5509 38.4956 42.2301 38.7694C41.765 39.1663 41.2425 39.4697 40.6772 39.6712C40.2805 39.8127 40.0156 40.1883 40.0156 40.6095V41.9727H38.0234V40.6093C38.0234 40.1882 37.7585 39.8125 37.3618 39.6711C36.7964 39.4695 36.274 39.1661 35.809 38.7694C35.4882 38.4956 35.0297 38.4537 34.6643 38.6645L33.479 39.3489L32.4829 37.6236L33.6507 36.9494C34.016 36.7385 34.2089 36.3204 34.1322 35.9056C34.0686 35.5621 34.039 35.2743 34.039 35C34.039 34.7257 34.0686 34.4379 34.1322 34.0944C34.2089 33.6796 34.0161 33.2615 33.6507 33.0506L32.4829 32.3764L33.479 30.6511L34.6643 31.3355C35.0296 31.5465 35.4881 31.5044 35.809 31.2306C36.2741 30.8338 36.7966 30.5304 37.3618 30.3289C37.7585 30.1874 38.0234 29.8117 38.0234 29.3906V28.0273H40.0156V29.3905C40.0156 29.8117 40.2806 30.1873 40.6772 30.3288ZM37.0273 26.0352C36.4772 26.0352 36.0312 26.4811 36.0312 27.0312V28.7277C35.7023 28.8852 35.3861 29.0688 35.0844 29.2775L33.6125 28.4277C33.3837 28.2956 33.1118 28.2598 32.8567 28.3282C32.6015 28.3966 32.384 28.5635 32.2519 28.7923L30.2597 32.2429C29.9848 32.719 30.1479 33.3286 30.6243 33.6035L32.0734 34.4403C32.0556 34.6329 32.0469 34.8187 32.0469 35C32.0469 35.1813 32.0556 35.3671 32.0734 35.5597L30.6243 36.3964C30.1482 36.6712 29.9846 37.2807 30.2597 37.7571L32.2519 41.2077C32.5267 41.6838 33.1361 41.8473 33.6126 41.5722L35.0844 40.7224C35.3862 40.9311 35.7023 41.1146 36.0313 41.2721V42.9688C36.0313 43.5189 36.4773 43.9648 37.0274 43.9648H38.0235V45.0273C38.0235 45.5766 37.5767 46.0234 37.0274 46.0234H25.0743C24.525 46.0234 24.0782 45.5766 24.0782 45.0273V24.9727C24.0782 24.4234 24.525 23.9766 25.0743 23.9766H37.0274C37.5767 23.9766 38.0235 24.4234 38.0235 24.9727V26.0352H37.0273ZM38.0234 20.9883V22.1557C37.7117 22.0451 37.3766 21.9844 37.0273 21.9844H25.0742C24.7251 21.9844 24.3899 22.0451 24.0781 22.1557V20.9883C24.0781 20.439 24.525 19.9922 25.0742 19.9922H37.0273C37.5767 19.9922 38.0234 20.439 38.0234 20.9883Z" fill="white"/>
</g>
<defs>
<clipPath id="clip0_777_1636">
<rect width="34" height="34" fill="white" transform="translate(18 18)"/>
</clipPath>
</defs>
</svg>
