<svg width="70" height="70" viewBox="0 0 70 70" fill="none" xmlns="http://www.w3.org/2000/svg">
<rect width="70" height="70" rx="20" fill="#0A909B"/>
<g clip-path="url(#clip0_777_1637)">
<path d="M32.8086 45.7578H24.3086C23.7585 45.7578 23.3125 46.2038 23.3125 46.7539C23.3125 47.304 23.7585 47.75 24.3086 47.75H32.8086C33.3587 47.75 33.8047 47.304 33.8047 46.7539C33.8047 46.2038 33.3587 45.7578 32.8086 45.7578Z" fill="white"/>
<path d="M42.7523 25.0485C42.3803 24.8945 41.9516 24.9795 41.6667 25.2644L41.3288 25.6023C40.6596 26.2716 39.9161 26.8392 39.1171 27.2987V21.9844C39.1171 19.7874 37.3297 18 35.1327 18H21.9844C19.7874 18 18 19.7874 18 21.9844V48.0156C18 50.2126 19.7874 52 21.9844 52H35.1328C37.3298 52 39.1172 50.2126 39.1172 48.0156V38.4513C39.9161 38.9108 40.6597 39.4785 41.3289 40.1477L41.6668 40.4856C41.9527 40.7715 42.3816 40.8551 42.7523 40.7015C43.1245 40.5473 43.3673 40.1841 43.3673 39.7812V25.9688C43.3672 25.5659 43.1245 25.2027 42.7523 25.0485ZM25.3047 19.9922H31.8125V21.2539C31.8125 21.8032 31.3657 22.25 30.8164 22.25H26.3008C25.7515 22.25 25.3047 21.8032 25.3047 21.2539V19.9922ZM37.125 48.0156C37.125 49.1141 36.2313 50.0078 35.1328 50.0078H21.9844C20.8859 50.0078 19.9922 49.1141 19.9922 48.0156V21.9844C19.9922 20.8859 20.8859 19.9922 21.9844 19.9922H23.3125V21.2539C23.3125 22.9016 24.653 24.2422 26.3008 24.2422H30.8164C32.4641 24.2422 33.8047 22.9016 33.8047 21.2539V19.9922H35.1328C36.2313 19.9922 37.125 20.8859 37.125 21.9844V28.1818C36.3548 28.4306 35.5528 28.5905 34.7317 28.6563C34.5592 28.36 34.2388 28.1602 33.8711 28.1602H28.4258C26.778 28.1602 25.4375 29.5007 25.4375 31.1484V34.6016C25.4375 35.7826 26.1263 36.8057 27.1232 37.2905L28.6621 42.7731C28.7827 43.2029 29.1746 43.5 29.6211 43.5H33.3398C33.9997 43.5 34.4769 42.8691 34.2989 42.2347L32.9952 37.5898H33.8711C34.2388 37.5898 34.5592 37.39 34.7317 37.0936C35.5528 37.1595 36.3547 37.3194 37.125 37.5681V48.0156ZM32.0257 41.5078H30.3761L29.2763 37.5898H30.9259L32.0257 41.5078ZM32.875 35.5977H28.4258C27.8765 35.5977 27.4297 35.1508 27.4297 34.6016V31.1484C27.4297 30.5992 27.8765 30.1523 28.4258 30.1523H32.875V35.5977ZM41.375 37.5582C39.543 36.1886 37.2883 35.2973 34.8672 35.1062V30.6438C37.2879 30.4527 39.5427 29.5615 41.375 28.1918V37.5582Z" fill="white"/>
<path d="M51.0039 31.8789H46.6875C46.1374 31.8789 45.6914 32.3249 45.6914 32.875C45.6914 33.4251 46.1374 33.8711 46.6875 33.8711H51.0039C51.554 33.8711 52 33.4251 52 32.875C52 32.3249 51.554 31.8789 51.0039 31.8789Z" fill="white"/>
<path d="M46.8606 29.3293L49.5168 26.673C49.9058 26.2841 49.9058 25.6534 49.5168 25.2644C49.1279 24.8754 48.4972 24.8754 48.1082 25.2644L45.4519 27.9206C45.0629 28.3096 45.0629 28.9403 45.4519 29.3293C45.841 29.7184 46.4716 29.7183 46.8606 29.3293Z" fill="white"/>
<path d="M46.8606 36.4206C46.4716 36.0317 45.8409 36.0317 45.4519 36.4206C45.0629 36.8096 45.0629 37.4403 45.4519 37.8293L48.1082 40.4855C48.4972 40.8745 49.1278 40.8745 49.5168 40.4855C49.9058 40.0966 49.9058 39.4659 49.5168 39.0769L46.8606 36.4206Z" fill="white"/>
<path d="M26.8984 42.4375C26.8984 41.8874 26.4525 41.4414 25.9023 41.4414H23.2461C22.696 41.4414 22.25 41.8874 22.25 42.4375C22.25 42.9876 22.696 43.4336 23.2461 43.4336H25.9023C26.4525 43.4336 26.8984 42.9876 26.8984 42.4375Z" fill="white"/>
</g>
<defs>
<clipPath id="clip0_777_1637">
<rect width="34" height="34" fill="white" transform="translate(18 18)"/>
</clipPath>
</defs>
</svg>
