<svg width="70" height="70" viewBox="0 0 70 70" fill="none" xmlns="http://www.w3.org/2000/svg">
<rect width="70" height="70" rx="20" fill="#0B1427"/>
<g clip-path="url(#clip0_777_1638)">
<path d="M19.2338 50.7662C20.9326 52.5156 23.9422 52.3853 25.4836 50.4987L29.9444 45.201C32.1735 46.524 34.7247 47.2304 37.3847 47.2304C41.2886 47.2304 44.9587 45.7102 47.7192 42.9498C50.4796 40.1893 51.9999 36.5191 51.9999 32.6153C51.9999 28.7114 50.4796 25.0412 47.7192 22.2807C44.9588 19.5202 41.2886 18 37.3847 18C33.4809 18 29.8106 19.5203 27.0502 22.2807C24.2898 25.0412 22.7695 28.7114 22.7695 32.6153C22.7695 35.2752 23.4759 37.8264 24.7989 40.0555L19.5012 44.5163C17.614 46.0583 17.4851 49.0688 19.2338 50.7662ZM24.7619 32.6153C24.7619 25.6549 30.4245 19.9923 37.3847 19.9923C44.3451 19.9923 50.0077 25.6549 50.0077 32.6153C50.0077 39.5755 44.3451 45.2381 37.3847 45.2381C30.4245 45.2381 24.7619 39.5755 24.7619 32.6153ZM25.9366 41.7021C26.2818 42.1353 26.6527 42.5522 27.0503 42.9498C27.4478 43.3473 27.8647 43.7182 28.2979 44.0634L25.7363 47.1054L22.8945 44.2637L25.9366 41.7021ZM19.9847 47.6676C20.012 47.0296 20.296 46.4516 20.7845 46.0403L21.3649 45.5516L24.4484 48.635L23.9596 49.2154C23.5483 49.7039 22.9704 49.9879 22.3323 50.0152C21.051 50.1008 19.8993 48.9491 19.9847 47.6676Z" fill="white"/>
<path d="M35.0372 36.7579H37.6982C38.1934 36.7579 38.5947 36.3565 38.5947 35.8613C38.5947 35.3661 38.1934 34.9648 37.6982 34.9648H35.9337V33.6001H37.502C37.9972 33.6001 38.3986 33.1988 38.3986 32.7036C38.3986 32.2084 37.9972 31.8071 37.502 31.8071H35.9337V30.4425H37.6982C38.1934 30.4425 38.5947 30.0411 38.5947 29.546C38.5947 29.0508 38.1934 28.6494 37.6982 28.6494H35.0372C34.542 28.6494 34.1406 29.0508 34.1406 29.546V35.8613C34.1406 36.3565 34.542 36.7579 35.0372 36.7579Z" fill="white"/>
<path d="M32.5698 34.6663C32.7355 33.7379 32.3191 32.5269 30.6532 31.9124L29.2129 31.3382C28.8223 31.1722 28.8444 30.6039 29.2499 30.479C29.2543 30.4776 29.2586 30.4763 29.263 30.475C30.1165 30.218 30.9198 30.858 30.9198 30.858C31.3038 31.1721 31.8731 31.1559 32.1986 30.7815C32.5369 30.3943 32.477 29.8005 32.0736 29.4854C32.0117 29.4334 30.538 28.2181 28.7457 28.7581C26.8369 29.2909 26.3704 31.8426 28.1234 32.8203C28.1604 32.8369 29.0411 33.2288 30.0327 33.5946C30.2323 33.6682 30.8779 33.9404 30.8046 34.3511C30.7569 34.6178 30.4105 34.9934 29.7895 34.9934C29.1946 34.9934 28.6227 34.759 28.2529 34.365C27.9134 34.0032 27.3469 33.9447 26.975 34.2732C26.5999 34.6045 26.569 35.1775 26.9041 35.5472C27.6178 36.3348 28.6695 36.7865 29.7895 36.7865C31.1811 36.7865 32.3504 35.8948 32.5698 34.6663Z" fill="white"/>
<path d="M44.013 36.7868C46.2646 36.7868 48.0964 34.955 48.0964 32.7035C48.0964 30.4519 46.2646 28.6201 44.013 28.6201C41.7615 28.6201 39.9297 30.4519 39.9297 32.7035C39.9297 34.9551 41.7614 36.7868 44.013 36.7868ZM44.013 30.4133C45.2759 30.4133 46.3033 31.4407 46.3033 32.7035C46.3033 33.9664 45.2759 34.9938 44.013 34.9938C42.7502 34.9938 41.7228 33.9664 41.7228 32.7035C41.7228 31.4407 42.7502 30.4133 44.013 30.4133Z" fill="white"/>
</g>
<defs>
<clipPath id="clip0_777_1638">
<rect width="34" height="34" fill="white" transform="translate(18 18)"/>
</clipPath>
</defs>
</svg>
