<svg width="56" height="56" viewBox="0 0 56 56" fill="none" xmlns="http://www.w3.org/2000/svg">
<circle cx="28" cy="28" r="28" fill="#C57016"/>
<g clip-path="url(#clip0_657_13739)">
<path d="M30.631 16.3883C30.7091 16.4142 30.7891 16.3547 30.7854 16.2726C30.6994 14.3858 29.1892 13.125 27.5353 13.125C25.8713 13.125 24.3713 14.402 24.2853 16.2737C24.2815 16.3559 24.3616 16.4154 24.4396 16.3895C26.3463 15.755 28.7574 15.7653 30.631 16.3883Z" fill="white"/>
<path d="M39.2587 34.9774C37.7177 33.6566 36.8339 31.7351 36.8339 29.706V28.9223C36.8339 28.8485 36.7662 28.7943 36.6939 28.8089C32.747 29.5993 28.9316 26.5599 28.9316 22.4213C28.9316 19.6115 30.4717 18.107 30.9689 17.6803C31.0349 17.6237 31.0178 17.5167 30.937 17.4846C24.9147 15.0952 18.2402 19.5346 18.2402 26.1401V29.706C18.2402 31.6941 17.3862 33.6316 15.8154 34.9774C15.5563 35.1993 15.3448 35.48 15.2036 35.7879C14.4806 37.3593 15.635 39.1557 17.3616 39.1557H37.6709C38.9239 39.1557 39.9929 38.2013 40.0818 36.9514C40.1379 36.1623 39.8016 35.4424 39.2587 34.9774Z" fill="white"/>
<path d="M27.5388 42.875C29.2641 42.875 30.7487 41.8254 31.3873 40.331C31.4369 40.215 31.3541 40.0859 31.228 40.0859H23.8497C23.7236 40.0859 23.6408 40.215 23.6903 40.331C24.329 41.8254 25.8136 42.875 27.5388 42.875Z" fill="white"/>
<path d="M35.4375 28C38.5329 28 41.0156 25.4939 41.0156 22.4219C41.0156 19.3464 38.513 16.8438 35.4375 16.8438C32.3445 16.8438 29.8594 19.3556 29.8594 22.4219C29.8594 25.4974 32.362 28 35.4375 28ZM34.7158 20.9785C34.4857 21.093 34.2068 21 34.0918 20.7705C33.9773 20.541 34.0703 20.2615 34.2998 20.1465L35.2295 19.6816C35.5363 19.5282 35.9023 19.75 35.9023 20.0977V24.2231C35.9023 24.2552 35.9284 24.2812 35.9604 24.2812H36.3514C36.599 24.2812 36.8152 24.4682 36.831 24.7154C36.8484 24.9861 36.6342 25.2109 36.3672 25.2109H34.5236C34.276 25.2109 34.0598 25.024 34.044 24.7768C34.0266 24.5061 34.2408 24.2812 34.5078 24.2812H34.9146C34.9466 24.2812 34.9727 24.2552 34.9727 24.2231V20.9437C34.9727 20.9005 34.9271 20.8724 34.8885 20.8918L34.7158 20.9785Z" fill="white"/>
</g>
<defs>
<clipPath id="clip0_657_13739">
<rect width="29.75" height="29.75" fill="white" transform="translate(13.125 13.125)"/>
</clipPath>
</defs>
</svg>
