<svg width="51" height="51" viewBox="0 0 51 51" fill="none" xmlns="http://www.w3.org/2000/svg">
<path d="M49.2801 42.2789L46.0576 35.8693C46.0104 35.7751 45.9463 35.69 45.8689 35.6184V30.2008H46.6556C47.1404 30.2008 47.5338 29.8074 47.5338 29.3226V12.4394C47.5338 11.9543 47.1404 11.5612 46.6556 11.5612H38.7522V8.42168C38.7522 7.93654 38.3595 7.54349 37.874 7.54349H36.1695V5.98714C36.1695 5.50231 35.7767 5.10895 35.2913 5.10895H32.6884V4.87233C32.6884 4.3875 32.2951 3.99414 31.8102 3.99414C31.3254 3.99414 30.9321 4.3875 30.9321 4.87233V5.10895H28.3295C27.8447 5.10895 27.4513 5.50231 27.4513 5.98714V7.54349H25.7468C25.2619 7.54349 24.8686 7.93654 24.8686 8.42168V9.12667H6.92061C5.89728 9.12789 5.06788 9.95729 5.06666 10.9806V35.6187C4.9892 35.69 4.92517 35.7751 4.87791 35.8696L1.65483 42.282C1.59446 42.4033 1.56305 42.5372 1.56305 42.6732H1.56152V43.8441C1.56335 45.4062 2.82941 46.672 4.39124 46.6738H46.5443C48.1061 46.672 49.3722 45.4062 49.374 43.8441V42.6732H49.3725C49.3728 42.5366 49.3417 42.4012 49.2801 42.2789ZM45.7774 13.3179V28.4444H38.7522V13.3176L45.7774 13.3179ZM37.874 30.2008H40.3214V31.4378H10.6142V14.7663H24.8686V29.3226C24.8686 29.8074 25.2619 30.2008 25.7468 30.2008H37.874ZM32.5683 28.4444H31.0525V25.2994H32.5683V28.4444ZM29.2077 6.86533H34.4131V7.54349H29.2077V6.86533ZM26.625 9.29986H36.9958V28.4444H34.3247V24.4212C34.3247 23.9363 33.9319 23.543 33.4465 23.543H30.1743C29.6895 23.543 29.2961 23.9363 29.2961 24.4212V28.4444H26.625V9.29986ZM6.82303 10.9806C6.82303 10.9266 6.86694 10.883 6.92061 10.883H24.8686V13.0099H9.736C9.25055 13.0099 8.85781 13.4033 8.85781 13.8881V32.316C8.85781 32.8012 9.25055 33.1942 9.736 33.1942H41.1996C41.685 33.1942 42.0777 32.8012 42.0777 32.316V30.2008H44.1125V35.3854H6.82303V10.9806ZM6.20403 37.1418H44.7315L47.0712 41.795L33.1138 41.7977L32.8799 40.9488C32.539 39.723 31.4236 38.8738 30.1518 38.8717H20.7835C19.511 38.8738 18.3962 39.723 18.0553 40.9488L17.8214 41.7977H3.86433L6.20403 37.1418ZM46.5443 44.9174H4.39124C3.79847 44.9171 3.31851 44.4369 3.3179 43.8441V43.5544H18.4898C18.885 43.5544 19.2317 43.2906 19.3369 42.9095L19.7486 41.4163C19.8779 40.9513 20.3005 40.6296 20.7829 40.628H30.1514C30.6338 40.6292 31.0568 40.9513 31.1858 41.4163L31.598 42.9095C31.7029 43.2903 32.0493 43.5544 32.4445 43.5544L47.6176 43.5514V43.8441C47.617 44.4369 47.1371 44.9171 46.5443 44.9174Z" fill="white"/>
<path d="M28.7424 13.8521H34.8812C35.3667 13.8521 35.7594 13.4587 35.7594 12.9739C35.7594 12.4884 35.3667 12.0957 34.8812 12.0957H28.7424C28.2573 12.0957 27.8643 12.4884 27.8643 12.9739C27.8643 13.4587 28.2573 13.8521 28.7424 13.8521Z" fill="white"/>
<path d="M28.7424 17.8863H34.8812C35.3667 17.8863 35.7594 17.4932 35.7594 17.0081C35.7594 16.5232 35.3667 16.1299 34.8812 16.1299H28.7424C28.2573 16.1299 27.8643 16.5232 27.8643 17.0081C27.8643 17.4932 28.2573 17.8863 28.7424 17.8863Z" fill="white"/>
<path d="M40.3186 18.7632H44.0896C44.5751 18.7632 44.9678 18.3699 44.9678 17.885C44.9678 17.3999 44.5751 17.0068 44.0896 17.0068H40.3186C39.8338 17.0068 39.4404 17.3999 39.4404 17.885C39.4404 18.3699 39.8338 18.7632 40.3186 18.7632Z" fill="white"/>
<path d="M34.8812 21.7896C35.3667 21.7896 35.7594 21.3965 35.7594 20.9114C35.7594 20.4266 35.3667 20.0332 34.8812 20.0332H28.7424C28.2573 20.0332 27.8643 20.4266 27.8643 20.9114C27.8643 21.3965 28.2573 21.7896 28.7424 21.7896H34.8812Z" fill="white"/>
<path d="M44.0896 24.5059H40.3186C39.8338 24.5059 39.4404 24.8992 39.4404 25.384C39.4404 25.8689 39.8338 26.2622 40.3186 26.2622H44.0896C44.5751 26.2622 44.9678 25.8689 44.9678 25.384C44.9678 24.8992 44.5751 24.5059 44.0896 24.5059Z" fill="white"/>
<path d="M22.4425 18.1426H13.8557C13.3709 18.1426 12.9775 18.5359 12.9775 19.0208C12.9775 19.5056 13.3709 19.899 13.8557 19.899H22.4425C22.9273 19.899 23.3207 19.5056 23.3207 19.0208C23.3207 18.5359 22.9273 18.1426 22.4425 18.1426Z" fill="white"/>
<path d="M13.8557 23.8023H16.5879C17.0727 23.8023 17.4661 23.4089 17.4661 22.9241C17.4661 22.4393 17.0727 22.0459 16.5879 22.0459H13.8557C13.3709 22.0459 12.9775 22.4393 12.9775 22.9241C12.9775 23.4089 13.3709 23.8023 13.8557 23.8023Z" fill="white"/>
<path d="M22.4425 24.9727H13.8557C13.3709 24.9727 12.9775 25.366 12.9775 25.8508C12.9775 26.3357 13.3709 26.729 13.8557 26.729H22.4425C22.9273 26.729 23.3207 26.3357 23.3207 25.8508C23.3207 25.366 22.9273 24.9727 22.4425 24.9727Z" fill="white"/>
<path d="M22.4425 28.3887H13.8557C13.3709 28.3887 12.9775 28.782 12.9775 29.2669C12.9775 29.7517 13.3709 30.145 13.8557 30.145H22.4425C22.9273 30.145 23.3207 29.7517 23.3207 29.2669C23.3207 28.782 22.9273 28.3887 22.4425 28.3887Z" fill="white"/>
<path d="M40.3186 22.3589H44.0896C44.5751 22.3589 44.9678 21.9656 44.9678 21.4807C44.9678 20.9959 44.5751 20.6025 44.0896 20.6025H40.3186C39.8338 20.6025 39.4404 20.9959 39.4404 21.4807C39.4404 21.9656 39.8338 22.3589 40.3186 22.3589Z" fill="white"/>
</svg>
