<svg width="55" height="55" viewBox="0 0 55 55" fill="none" xmlns="http://www.w3.org/2000/svg">
<path opacity="0.5" d="M20.6257 34.375H25.209C26.474 34.375 27.5007 35.4017 27.5007 36.6667V48.125H18.334V36.6667C18.334 35.4017 19.3607 34.375 20.6257 34.375Z" fill="#0A909B"/>
<path d="M43.5417 18.9062H34.375C33.3392 18.9062 32.3744 19.1812 31.5104 19.6281V11.4583C31.5104 7.98188 28.6848 5.15625 25.2083 5.15625H11.4583C7.98188 5.15625 5.15625 7.98188 5.15625 11.4583V45.8333C5.15625 48.0448 6.95521 49.8438 9.16667 49.8438H45.8333C48.0448 49.8438 49.8438 48.0448 49.8438 45.8333V25.2083C49.8438 21.7319 47.0181 18.9062 43.5417 18.9062ZM15.4688 46.4062V36.6667C15.4688 36.3504 15.7254 36.0938 16.0417 36.0938H20.625C20.9413 36.0938 21.1979 36.3504 21.1979 36.6667V46.4062H15.4688ZM28.0729 46.4062H24.6354V36.6667C24.6354 34.4552 22.8365 32.6562 20.625 32.6562H16.0417C13.8302 32.6562 12.0312 34.4552 12.0312 36.6667V46.4062H9.16667C8.85042 46.4062 8.59375 46.1496 8.59375 45.8333V11.4583C8.59375 9.87937 9.87937 8.59375 11.4583 8.59375H25.2083C26.7873 8.59375 28.0729 9.87937 28.0729 11.4583V46.4062ZM46.4062 45.8333C46.4062 46.1496 46.1496 46.4062 45.8333 46.4062H31.5104V25.2083C31.5104 23.6294 32.796 22.3438 34.375 22.3438H43.5417C45.1206 22.3438 46.4062 23.6294 46.4062 25.2083V45.8333ZM22.3438 25.2083C22.3438 26.1571 21.5738 26.9271 20.625 26.9271H16.0417C15.0929 26.9271 14.3229 26.1571 14.3229 25.2083C14.3229 24.2596 15.0929 23.4896 16.0417 23.4896H20.625C21.5738 23.4896 22.3438 24.2596 22.3438 25.2083ZM42.9688 38.9583C42.9688 39.9071 42.1987 40.6771 41.25 40.6771H36.6667C35.7179 40.6771 34.9479 39.9071 34.9479 38.9583C34.9479 38.0096 35.7179 37.2396 36.6667 37.2396H41.25C42.1987 37.2396 42.9688 38.0096 42.9688 38.9583ZM42.9688 29.7917C42.9688 30.7404 42.1987 31.5104 41.25 31.5104H36.6667C35.7179 31.5104 34.9479 30.7404 34.9479 29.7917C34.9479 28.8429 35.7179 28.0729 36.6667 28.0729H41.25C42.1987 28.0729 42.9688 28.8429 42.9688 29.7917ZM22.3438 16.0417C22.3438 16.9904 21.5738 17.7604 20.625 17.7604H16.0417C15.0929 17.7604 14.3229 16.9904 14.3229 16.0417C14.3229 15.0929 15.0929 14.3229 16.0417 14.3229H20.625C21.5738 14.3229 22.3438 15.0929 22.3438 16.0417Z" fill="#112D55"/>
</svg>
