<svg width="30" height="30" viewBox="0 0 30 30" fill="none" xmlns="http://www.w3.org/2000/svg">
<g clip-path="url(#clip0_657_21867)">
<path d="M29.1211 22.286H26.4647V18.4781C26.4647 17.9927 26.0712 17.5992 25.5858 17.5992H15.8577V15.8322H25.5859C26.0713 15.8322 26.4648 15.4387 26.4648 14.9533V0.878906C26.4648 0.393516 26.0713 0 25.5859 0H4.41416C3.92877 0 3.53525 0.393516 3.53525 0.878906V14.9532C3.53525 15.4386 3.92877 15.8321 4.41416 15.8321H14.1424V17.5991H4.41416C3.92877 17.5991 3.53525 17.9926 3.53525 18.478V22.286H0.878906C0.393516 22.286 0 22.6795 0 23.1649V29.1211C0 29.6065 0.393516 30 0.878906 30H8.00695C8.49234 30 8.88586 29.6065 8.88586 29.1211V23.1649C8.88586 22.6795 8.49234 22.286 8.00695 22.286H5.29307V19.357H14.1424V22.286H11.436C10.9506 22.286 10.5571 22.6795 10.5571 23.1649V29.1211C10.5571 29.6065 10.9506 30 11.436 30H18.5641C19.0495 30 19.443 29.6065 19.443 29.1211V23.1649C19.443 22.6795 19.0495 22.286 18.5641 22.286H15.8577V19.357H24.707V22.286H21.993C21.5077 22.286 21.1141 22.6795 21.1141 23.1649V29.1211C21.1141 29.6065 21.5077 30 21.993 30H29.1211C29.6065 30 30 29.6065 30 29.1211V23.1649C30 22.6795 29.6065 22.286 29.1211 22.286ZM7.92979 3.51562H22.0703C22.5557 3.51562 22.9492 3.90914 22.9492 4.39453C22.9492 4.87992 22.5557 5.27344 22.0703 5.27344H7.92979C7.4444 5.27344 7.05088 4.87992 7.05088 4.39453C7.05088 3.90914 7.44434 3.51562 7.92979 3.51562ZM7.92979 7.03125H22.0703C22.5557 7.03125 22.9492 7.42477 22.9492 7.91016C22.9492 8.39555 22.5557 8.78906 22.0703 8.78906H7.92979C7.4444 8.78906 7.05088 8.39555 7.05088 7.91016C7.05088 7.42477 7.44434 7.03125 7.92979 7.03125ZM7.05082 11.4258C7.05082 10.9404 7.44434 10.5469 7.92973 10.5469H22.0702C22.5556 10.5469 22.9491 10.9404 22.9491 11.4258C22.9491 11.9112 22.5556 12.3047 22.0702 12.3047H7.92979C7.44434 12.3047 7.05082 11.9112 7.05082 11.4258Z" fill="#0A909B"/>
</g>
<defs>
<clipPath id="clip0_657_21867">
<rect width="30" height="30" fill="white"/>
</clipPath>
</defs>
</svg>
