<svg width="60" height="61" viewBox="0 0 60 61" fill="none" xmlns="http://www.w3.org/2000/svg">
<path fill-rule="evenodd" clip-rule="evenodd" d="M30 60.8971C13.4431 60.8971 0 47.4752 0 30.9183C0 14.3614 13.4431 0.939453 30 0.939453C46.5569 0.939453 60 14.3614 60 30.9183C60 47.4752 46.5569 60.8971 30 60.8971Z" fill="#0A909B"/>
<path d="M17.0357 36.2757L17.4763 33.2029C17.6065 32.3106 18.0529 31.4946 18.7342 30.9034C19.4155 30.3121 20.2865 29.9849 21.1888 29.9811H22.1629L26.4857 26.3845C27.3281 25.6834 28.3894 25.2987 29.4857 25.2969H32.8138C33.0625 25.2969 33.3009 25.3956 33.4767 25.5713C33.6526 25.747 33.7513 25.9852 33.7513 26.2337C33.7513 26.4822 33.6526 26.7205 33.4767 26.8962C33.3009 27.0719 33.0625 27.1706 32.8138 27.1706H29.4857C28.8273 27.1727 28.1902 27.4047 27.6848 27.8263L25.0926 29.9811H39.6641C39.612 29.7646 39.6393 29.5365 39.7413 29.3385C39.8432 29.1404 40.0129 28.9855 40.2195 28.902C40.4261 28.8185 40.6558 28.8119 40.8669 28.8834C41.0779 28.9548 41.2563 29.0997 41.3695 29.2916L41.5738 29.6288C41.9549 30.2709 42.2053 30.9818 42.3107 31.7208L42.967 36.2841C43.0034 36.5491 42.9826 36.8188 42.906 37.0751C42.8294 37.3314 42.6988 37.5683 42.5229 37.7699C42.3471 37.9716 42.1301 38.1333 41.8865 38.2441C41.6429 38.355 41.3784 38.4124 41.1107 38.4126H40.1807C39.9761 39.216 39.5094 39.9284 38.8544 40.4372C38.1994 40.946 37.3934 41.2223 36.5638 41.2223C35.7342 41.2223 34.9282 40.946 34.2733 40.4372C33.6183 39.9284 33.1516 39.216 32.947 38.4126H27.9932C27.7886 39.216 27.3219 39.9284 26.6669 40.4372C26.0119 40.946 25.2059 41.2223 24.3763 41.2223C23.5467 41.2223 22.7407 40.946 22.0857 40.4372C21.4308 39.9284 20.9641 39.216 20.7595 38.4126H18.892C18.6257 38.4122 18.3625 38.355 18.12 38.245C17.8776 38.135 17.6613 37.9747 17.4857 37.7746C17.308 37.5714 17.1758 37.3324 17.0982 37.0739C17.0206 36.8153 16.9993 36.5432 17.0357 36.2757ZM36.5638 39.3495C36.9347 39.3495 37.2972 39.2396 37.6055 39.0337C37.9139 38.8278 38.1542 38.5352 38.2961 38.1928C38.438 37.8504 38.4751 37.4737 38.4028 37.1102C38.3305 36.7468 38.1519 36.4129 37.8897 36.1509C37.6274 35.8889 37.2933 35.7104 36.9296 35.6381C36.5659 35.5658 36.1889 35.6029 35.8463 35.7447C35.5037 35.8865 35.2109 36.1267 35.0048 36.4348C34.7988 36.7429 34.6888 37.1052 34.6888 37.4758C34.6888 37.9727 34.8864 38.4493 35.238 38.8007C35.5896 39.1521 36.0665 39.3495 36.5638 39.3495ZM24.3763 39.3495C24.7472 39.3495 25.1097 39.2396 25.418 39.0337C25.7264 38.8278 25.9667 38.5352 26.1086 38.1928C26.2505 37.8504 26.2876 37.4737 26.2153 37.1102C26.143 36.7468 25.9644 36.4129 25.7022 36.1509C25.4399 35.8889 25.1058 35.7104 24.7421 35.6381C24.3784 35.5658 24.0014 35.6029 23.6588 35.7447C23.3162 35.8865 23.0233 36.1267 22.8173 36.4348C22.6113 36.7429 22.5013 37.1052 22.5013 37.4758C22.5013 37.9727 22.6989 38.4493 23.0505 38.8007C23.4021 39.1521 23.879 39.3495 24.3763 39.3495ZM20.7595 36.5389C20.9641 35.7355 21.4308 35.0231 22.0857 34.5143C22.7407 34.0055 23.5467 33.7293 24.3763 33.7293C25.2059 33.7293 26.0119 34.0055 26.6669 34.5143C27.3219 35.0231 27.7886 35.7355 27.9932 36.5389H32.947C33.1516 35.7355 33.6183 35.0231 34.2733 34.5143C34.9282 34.0055 35.7342 33.7293 36.5638 33.7293C37.3934 33.7293 38.1994 34.0055 38.8544 34.5143C39.5094 35.0231 39.9761 35.7355 40.1807 36.5389H41.1107L40.4545 31.9784C40.4479 31.9288 40.4282 31.8847 40.4188 31.8313C40.3843 31.8411 40.3492 31.8489 40.3138 31.8547H21.1888C20.7373 31.8566 20.3014 32.0206 19.9607 32.3167C19.62 32.6128 19.3971 33.0214 19.3326 33.468L18.892 36.5389H20.7595Z" fill="white"/>
<path d="M36.5628 25.2979H36.921L36.6566 24.7798C36.6016 24.6697 36.5688 24.5499 36.5601 24.4271C36.5514 24.3043 36.567 24.181 36.606 24.0643C36.645 23.9475 36.7067 23.8396 36.7874 23.7467C36.8681 23.6537 36.9664 23.5776 37.0766 23.5226C37.1868 23.4676 37.3067 23.4348 37.4296 23.4262C37.5524 23.4175 37.6758 23.4331 37.7926 23.4721C37.9095 23.511 38.0175 23.5726 38.1105 23.6533C38.2035 23.734 38.2797 23.8322 38.3347 23.9423L39.2722 25.816C39.3435 25.9585 39.3772 26.1168 39.3702 26.276C39.3632 26.4351 39.3157 26.5899 39.2321 26.7256C39.1486 26.8613 39.0318 26.9734 38.8929 27.0515C38.7539 27.1295 38.5973 27.1709 38.4378 27.1716H38.0797L38.3394 27.6896C38.4505 27.912 38.4687 28.1694 38.39 28.4052C38.3112 28.641 38.1419 28.8358 37.9194 28.9469C37.6969 29.0579 37.4393 29.0761 37.2034 28.9974C36.9674 28.9187 36.7724 28.7496 36.6613 28.5272L35.7238 26.6535C35.6523 26.5106 35.6186 26.3519 35.6259 26.1923C35.6331 26.0328 35.681 25.8778 35.7651 25.7419C35.8492 25.6061 35.9666 25.494 36.1062 25.4163C36.2458 25.3386 36.403 25.2978 36.5628 25.2979Z" fill="white"/>
<path d="M37.5 20.6133C38.6125 20.6133 39.7001 20.9429 40.6251 21.5606C41.5501 22.1782 42.2711 23.0561 42.6968 24.0832C43.1226 25.1103 43.234 26.2406 43.0169 27.3309C42.7999 28.4213 42.2641 29.4229 41.4775 30.209C40.6908 30.9951 39.6885 31.5305 38.5974 31.7473C37.5062 31.9642 36.3752 31.8529 35.3474 31.4275C34.3196 31.002 33.4411 30.2816 32.823 29.3572C32.2049 28.4328 31.875 27.3461 31.875 26.2343C31.8765 24.744 32.4696 23.3151 33.5242 22.2613C34.5787 21.2075 36.0086 20.6148 37.5 20.6133ZM37.5 29.9817C38.2417 29.9817 38.9667 29.7619 39.5834 29.3501C40.2001 28.9384 40.6807 28.3531 40.9645 27.6684C41.2484 26.9836 41.3226 26.2302 41.1779 25.5032C41.0332 24.7763 40.6761 24.1086 40.1516 23.5845C39.6272 23.0605 38.959 22.7036 38.2316 22.559C37.5042 22.4144 36.7502 22.4886 36.0649 22.7722C35.3797 23.0558 34.794 23.5361 34.382 24.1524C33.9699 24.7686 33.75 25.4932 33.75 26.2343C33.75 27.2282 34.1451 28.1813 34.8483 28.8841C35.5516 29.5869 36.5054 29.9817 37.5 29.9817Z" fill="white"/>
</svg>
