<svg width="60" height="60" viewBox="0 0 60 60" fill="none" xmlns="http://www.w3.org/2000/svg">
<rect width="60" height="60" rx="16" fill="white"/>
<path d="M20.1359 26.146L23.7719 22.348C24.5519 21.532 25.1219 20.914 25.4819 20.494C25.8419 20.062 26.0999 19.69 26.2559 19.378C26.4119 19.054 26.4899 18.724 26.4899 18.388C26.4899 17.836 26.3159 17.398 25.9679 17.074C25.6199 16.738 25.1639 16.57 24.5999 16.57C24.0119 16.57 23.5079 16.738 23.0879 17.074C22.6799 17.398 22.3799 17.878 22.1879 18.514L20.0459 17.848C20.1899 17.152 20.4779 16.546 20.9099 16.03C21.3539 15.502 21.8999 15.094 22.5479 14.806C23.1959 14.518 23.8799 14.374 24.5999 14.374C25.4519 14.374 26.2079 14.536 26.8679 14.86C27.5279 15.172 28.0379 15.616 28.3979 16.192C28.7699 16.756 28.9559 17.404 28.9559 18.136C28.9559 18.856 28.7579 19.558 28.3619 20.242C27.9779 20.914 27.3479 21.706 26.4719 22.618L23.3219 25.93H29.1359V28H20.1359V26.146ZM34.9622 28.216C34.2302 28.216 33.5342 28.078 32.8742 27.802C32.2262 27.526 31.6682 27.136 31.2002 26.632C30.7442 26.128 30.4322 25.546 30.2642 24.886L32.4062 24.13C32.6222 24.73 32.9522 25.192 33.3962 25.516C33.8402 25.84 34.3622 26.002 34.9622 26.002C35.6822 26.002 36.2582 25.798 36.6902 25.39C37.1342 24.982 37.3562 24.43 37.3562 23.734C37.3562 23.05 37.1342 22.51 36.6902 22.114C36.2582 21.706 35.6762 21.502 34.9442 21.502C34.4402 21.502 33.9842 21.598 33.5762 21.79L33.0182 20.62L36.4922 16.66H31.0202V14.59H39.2462V16.516L36.4922 19.738C37.5002 19.894 38.3042 20.326 38.9042 21.034C39.5042 21.73 39.8042 22.606 39.8042 23.662C39.8042 24.514 39.5942 25.288 39.1742 25.984C38.7542 26.68 38.1722 27.226 37.4282 27.622C36.6962 28.018 35.8742 28.216 34.9622 28.216Z" fill="#181945"/>
<path d="M19.868 45.25H20.47C20.918 45.25 21.2727 45.124 21.534 44.872C21.8047 44.6107 21.94 44.2653 21.94 43.836V36.57H23.858V43.766C23.858 44.41 23.718 44.9793 23.438 45.474C23.1673 45.9593 22.7753 46.3373 22.262 46.608C21.7487 46.8693 21.1513 47 20.47 47H19.868V45.25ZM27.7021 47.168C26.8994 47.168 26.2601 46.972 25.7841 46.58C25.3174 46.188 25.0841 45.656 25.0841 44.984C25.0841 44.34 25.3034 43.808 25.7421 43.388C26.1808 42.968 26.8388 42.688 27.7161 42.548L29.9841 42.184V41.932C29.9841 41.596 29.8534 41.3207 29.5921 41.106C29.3401 40.8913 29.0041 40.784 28.5841 40.784C28.1921 40.784 27.8421 40.8913 27.5341 41.106C27.2354 41.3113 27.0161 41.5867 26.8761 41.932L25.3781 41.204C25.6021 40.6067 26.0128 40.126 26.6101 39.762C27.2074 39.398 27.8888 39.216 28.6541 39.216C29.2701 39.216 29.8161 39.3327 30.2921 39.566C30.7774 39.79 31.1508 40.112 31.4121 40.532C31.6828 40.9427 31.8181 41.4093 31.8181 41.932V47H30.0821V46.188C29.4848 46.8413 28.6914 47.168 27.7021 47.168ZM26.9881 44.914C26.9881 45.1753 27.0861 45.3853 27.2821 45.544C27.4781 45.6933 27.7301 45.768 28.0381 45.768C28.6074 45.768 29.0741 45.5907 29.4381 45.236C29.8021 44.872 29.9841 44.424 29.9841 43.892V43.584L28.0661 43.906C27.7021 43.9807 27.4314 44.102 27.2541 44.27C27.0768 44.4287 26.9881 44.6433 26.9881 44.914ZM33.2332 39.384H34.9552V40.322C35.1512 39.9673 35.4358 39.6967 35.8092 39.51C36.1918 39.314 36.6258 39.216 37.1112 39.216C37.6618 39.216 38.1565 39.3373 38.5952 39.58C39.0338 39.8227 39.3745 40.1633 39.6172 40.602C39.8598 41.0407 39.9812 41.54 39.9812 42.1V47H38.1472V42.534C38.1472 42.0393 38.0025 41.6427 37.7132 41.344C37.4332 41.0453 37.0645 40.896 36.6072 40.896C36.1498 40.896 35.7765 41.0453 35.4872 41.344C35.2072 41.6427 35.0672 42.0393 35.0672 42.534V47H33.2332V39.384Z" fill="#181945" fill-opacity="0.6"/>
</svg>
