<svg width="51" height="51" viewBox="0 0 51 51" fill="none" xmlns="http://www.w3.org/2000/svg">
<path d="M4.72791 48.7538H13.285C14.997 48.7518 16.3849 47.3643 16.3869 45.6519V41.6859H46.6628C48.195 41.6842 49.4368 40.4424 49.4385 38.9102V37.8228H49.4368C49.4371 37.6727 49.403 37.5243 49.3355 37.3903L46.3419 31.4358C46.2998 31.3522 46.2463 31.2753 46.1825 31.2078V8.38056C46.1811 7.34904 45.3445 6.51306 44.3129 6.51172H38.9026C38.3711 6.51172 37.9399 6.94258 37.9399 7.47439C37.9399 8.00586 38.3711 8.43705 38.9026 8.43705H44.2571V30.9053H16.3869V29.1638H41.6977C42.2298 29.1638 42.6604 28.733 42.6604 28.2012V11.0821C42.6604 10.5499 42.2298 10.1194 41.6977 10.1194H37.833C37.3015 10.1194 36.8703 10.5499 36.8703 11.0821C36.8703 11.6135 37.3015 12.0447 37.833 12.0447H40.735V27.2385H16.3869V25.8637C16.3852 24.2084 15.0849 22.845 13.4314 22.7651V12.0447H16.8197C17.3512 12.0447 17.7824 11.6135 17.7824 11.0821C17.7824 10.5499 17.3512 10.1194 16.8197 10.1194H12.4687C11.9365 10.1194 11.506 10.5499 11.506 11.0821V22.7621H9.90926V8.43705H15.7498C16.2813 8.43705 16.7125 8.00586 16.7125 7.47439C16.7125 6.94258 16.2813 6.51172 15.7498 6.51172H9.85344C8.82192 6.51306 7.98527 7.34904 7.98393 8.38056V22.7618H4.72791C3.01583 22.7638 1.62798 24.1516 1.62598 25.8637V45.6519C1.62798 47.3643 3.01583 48.7518 4.72791 48.7538ZM13.285 46.8284H4.72791C4.07811 46.8278 3.55198 46.3017 3.55131 45.6519V43.9404H14.4615V45.6519C14.4609 46.3017 13.9348 46.8278 13.285 46.8284ZM14.2115 28.4575C14.2563 28.6193 14.3426 28.7667 14.4615 28.8847V42.0151H3.55131V28.4575H14.2115ZM46.6628 39.7605H16.3869V38.7882H20.6012C21.0344 38.7882 21.4141 38.499 21.5291 38.0812L21.9119 36.6937C22.0141 36.3257 22.3494 36.0703 22.7315 36.0696H31.4353C31.817 36.0703 32.1522 36.3257 32.2545 36.6937L32.6372 38.0812C32.7522 38.4987 33.132 38.7882 33.5652 38.7882L47.5131 38.7858V38.9108C47.5125 39.3798 47.1321 39.7602 46.6628 39.7605ZM44.8885 32.8307L46.9141 36.8602L34.2979 36.8625L34.11 36.1819C33.7757 34.9793 32.6824 34.1466 31.4349 34.1443H22.7315C21.4837 34.1466 20.39 34.9793 20.0557 36.1819L19.8679 36.8625H16.3869V32.8307H44.8885ZM4.72791 24.6871H13.285C13.9341 24.6881 14.4609 25.2145 14.4615 25.8637V26.5322H3.55131V25.8637C3.55198 25.2145 4.07877 24.6881 4.72791 24.6871Z" fill="white"/>
<path d="M10.2092 44.4219H7.80251C7.27104 44.4219 6.83984 44.8531 6.83984 45.3845C6.83984 45.916 7.27104 46.3472 7.80251 46.3472H10.2092C10.7407 46.3472 11.1718 45.916 11.1718 45.3845C11.1718 44.8531 10.7407 44.4219 10.2092 44.4219Z" fill="white"/>
<path d="M36.4965 7.06943C36.8638 6.68504 36.8501 6.07568 36.4657 5.70833C33.9962 3.34779 30.6693 2.06624 27.0991 2.10434C23.5519 2.14011 20.2324 3.46645 17.7522 5.83702C17.4995 6.07401 17.3932 6.42832 17.4737 6.76459C17.555 7.10152 17.8103 7.36893 18.1429 7.46486C18.4758 7.56113 18.8342 7.47088 19.0822 7.22888C21.2081 5.19658 24.062 4.06043 27.1185 4.02968C27.1612 4.02934 27.204 4.02867 27.2468 4.02867C30.2632 4.02867 33.0603 5.11669 35.1353 7.10019C35.5197 7.46754 36.1288 7.45383 36.4965 7.06943Z" fill="white"/>
<path d="M33.3903 10.032C33.7593 9.64924 33.7476 9.03989 33.3649 8.6712C31.721 7.09617 29.5279 6.22408 27.2513 6.24046C27.2014 6.24046 27.1513 6.24046 27.1015 6.24146C24.771 6.27389 22.5395 7.18708 20.8549 8.79788C20.6042 9.03521 20.4995 9.38852 20.5808 9.72411C20.6617 10.0597 20.9164 10.3258 21.2479 10.422C21.5792 10.5183 21.9372 10.4294 22.1855 10.1897C24.9469 7.54976 29.3624 7.49093 32.0292 10.0584C32.4122 10.4274 33.0219 10.4157 33.3903 10.032Z" fill="white"/>
<path d="M30.4473 12.8606C30.815 12.4762 30.8009 11.8665 30.4165 11.4991C28.6363 9.79743 25.6787 9.85525 23.8239 11.6285C23.4395 11.9955 23.4258 12.6052 23.7929 12.9896C24.1602 13.3743 24.7699 13.3884 25.1546 13.021C26.256 11.9671 28.0573 11.9083 29.0862 12.892C29.4706 13.2587 30.0799 13.245 30.4473 12.8606Z" fill="white"/>
<path d="M27.1092 14.2656C25.8126 14.2656 24.7617 15.3165 24.7617 16.6131C24.7617 17.9091 25.8126 18.9603 27.1092 18.9603C28.4051 18.9603 29.4564 17.9091 29.4564 16.6131C29.4547 15.3172 28.4048 14.2673 27.1092 14.2656ZM27.1092 17.035C26.8759 17.035 26.6871 16.8461 26.6871 16.6131C26.6871 16.3798 26.8759 16.191 27.1092 16.191C27.3419 16.191 27.5311 16.3798 27.5311 16.6131C27.5307 16.8458 27.3419 17.0346 27.1092 17.035Z" fill="white"/>
</svg>
