<svg width="19" height="19" viewBox="0 0 19 19" fill="none" xmlns="http://www.w3.org/2000/svg">
<g clip-path="url(#clip0_399_958)">
<path d="M14.25 11.0156C14.5774 11.0156 14.8438 11.2825 14.8438 11.6107C14.8438 11.9388 14.5774 12.2058 14.25 12.2058C13.9227 12.2058 13.6563 11.9388 13.6563 11.6107C13.6563 11.2825 13.9227 11.0156 14.25 11.0156Z" fill="white"/>
<path d="M5.64064 11.0156C5.96801 11.0156 6.23438 11.2825 6.23438 11.6107C6.23438 11.9388 5.96801 12.2058 5.64064 12.2058C5.31328 12.2058 5.04691 11.9388 5.04691 11.6107C5.04691 11.2825 5.31328 11.0156 5.64064 11.0156Z" fill="white"/>
<path d="M0.0156975 9.91436L0.240425 9.23717C0.433683 8.65494 0.927593 8.22597 1.52941 8.11773L4.77875 7.53324L5.41942 6.88314C6.63549 5.64915 8.25927 5.0146 9.87863 5.0146C13.9333 5.0146 14.3577 4.93229 15.4384 5.27287C15.5971 5.32289 16.4652 5.74563 16.5881 5.81728C16.711 5.88894 17.53 6.47432 17.6479 6.58824C18.5736 7.48285 19 8.53226 19 9.64169V10.6794C19 11.3309 18.4718 11.8698 17.8226 11.8749H16.6095C16.4758 13.0633 15.4689 13.9948 14.2501 13.9948C13.0404 13.9948 12.0397 13.0818 11.8941 11.9063C11.8895 11.9063 10.857 11.9075 7.99684 11.9075C7.85071 13.0824 6.85031 13.9948 5.64099 13.9948C4.43168 13.9948 3.43128 13.0824 3.28515 11.9075H0.779827C0.648836 11.9075 0.533319 11.8216 0.495543 11.6962C-0.0194817 9.9849 -0.0261612 10.0404 0.0156975 9.91436ZM14.0016 5.61486C13.8114 5.60566 14.0428 5.60829 10.69 5.60829C10.6353 5.80389 10.1523 7.51186 10.1523 7.51186H14.8197C13.957 5.51968 14.0106 5.64699 14.0016 5.61486ZM14.2501 13.401C15.2322 13.401 16.0313 12.5978 16.0313 11.6106C16.0313 10.6233 15.2322 9.82014 14.2501 9.82014C13.2679 9.82014 12.4689 10.6233 12.4689 11.6106C12.4689 12.5978 13.2679 13.401 14.2501 13.401ZM10.2424 9.59653H10.8361C11.0001 9.59653 11.133 9.4636 11.133 9.29966C11.133 9.13572 11.0001 9.0028 10.8361 9.0028H10.2424C10.0785 9.0028 9.94554 9.13572 9.94554 9.29966C9.94554 9.4636 10.0785 9.59653 10.2424 9.59653ZM9.53512 7.51186C9.59101 7.31237 10.0728 5.60829 10.0728 5.60829H9.87867C8.4178 5.60829 6.9465 6.17946 5.84234 7.29987L5.63342 7.51186H9.53512ZM5.64099 13.401C6.62314 13.401 7.42218 12.5978 7.42218 11.6106C7.42218 10.6233 6.62314 9.82014 5.64099 9.82014C4.65885 9.82014 3.8598 10.6233 3.8598 11.6106C3.8598 12.5978 4.65885 13.401 5.64099 13.401Z" fill="white"/>
</g>
<defs>
<clipPath id="clip0_399_958">
<rect width="19" height="19" fill="white" transform="matrix(-1 0 0 1 19 0)"/>
</clipPath>
</defs>
</svg>
