<svg width="19" height="19" viewBox="0 0 19 19" fill="none" xmlns="http://www.w3.org/2000/svg">
<g clip-path="url(#clip0_399_950)">
<path d="M11.6663 1.9611L10.8124 2.79632L11.0143 3.97592C11.0469 4.1683 10.8996 4.34603 10.702 4.34603C10.5948 4.34603 10.6505 4.36032 9.49983 3.75306L8.44531 4.30961C8.21375 4.43185 7.94149 4.23488 7.98535 3.97592L8.18723 2.79632L7.3334 1.9611C7.14546 1.77743 7.25075 1.45894 7.50915 1.42118L8.68796 1.24938L9.21562 0.176658C9.3316 -0.0587079 9.6679 -0.0590641 9.78404 0.176658L10.3117 1.24938L11.4905 1.42118C11.7494 1.45902 11.8538 1.77783 11.6663 1.9611ZM6.19556 3.58171L6.15816 3.3636C6.30458 3.22086 6.46865 3.10583 6.39673 2.88451C6.32484 2.66332 6.123 2.66637 5.92212 2.63715L5.82419 2.43872C5.70828 2.20383 5.37226 2.20367 5.25624 2.43872L5.15831 2.63715C4.95595 2.66657 4.75558 2.66316 4.68369 2.88451C4.61181 3.10571 4.77692 3.22189 4.92227 3.3636L4.88486 3.58171C4.84061 3.83983 5.11231 4.03747 5.34435 3.91552L5.54017 3.81252C5.74066 3.91797 5.7844 3.95189 5.88332 3.95189C6.07871 3.95189 6.22889 3.7759 6.19556 3.58171ZM3.42469 5.16506L3.38728 4.94695C3.5337 4.80421 3.69778 4.68918 3.62585 4.46787C3.55397 4.24668 3.35213 4.24972 3.15124 4.22051L3.05331 4.02208C2.93741 3.78719 2.60138 3.78703 2.48536 4.02208L2.38743 4.22051C2.18508 4.24992 1.98471 4.24652 1.91282 4.46787C1.84094 4.68907 2.00604 4.80524 2.15139 4.94695L2.11399 5.16506C2.06973 5.42319 2.34144 5.62083 2.57348 5.49887L2.7693 5.39588C2.96979 5.50133 3.01353 5.53525 3.11245 5.53525C3.30784 5.53525 3.45802 5.35926 3.42469 5.16506ZM14.1147 3.58171L14.0773 3.3636C14.2237 3.22086 14.3878 3.10583 14.3158 2.88451C14.244 2.66332 14.0421 2.66637 13.8412 2.63715C13.7507 2.45368 13.6921 2.26222 13.4594 2.26222C13.2268 2.26222 13.1673 2.45511 13.0775 2.63715L12.8585 2.66898C12.5993 2.70666 12.4953 3.02619 12.683 3.20914L12.8414 3.3636C12.8068 3.56524 12.7417 3.75465 12.93 3.89141C13.1182 4.02813 13.2797 3.90701 13.4594 3.81252C13.6599 3.91797 13.7036 3.95189 13.8025 3.95189C13.9978 3.95189 14.148 3.7759 14.1147 3.58171ZM16.8856 5.16506L16.8481 4.94695C16.9946 4.80421 17.1586 4.68918 17.0867 4.46787C17.0148 4.24668 16.813 4.24972 16.6121 4.22051C16.5216 4.03704 16.463 3.84557 16.2302 3.84557C15.9977 3.84557 15.9382 4.03846 15.8483 4.22051L15.6294 4.25234C15.3702 4.29002 15.2662 4.60954 15.4538 4.7925L15.6123 4.94695C15.5777 5.1486 15.5126 5.338 15.7009 5.47477C15.889 5.61149 16.0505 5.49036 16.2302 5.39588C16.4307 5.50133 16.4745 5.53525 16.5734 5.53525C16.7687 5.53525 16.9188 5.35926 16.8856 5.16506ZM4.83522 18.6743C4.84065 18.8527 4.69715 19 4.51867 19H2.84969C2.15013 19 1.58301 18.4329 1.58301 17.7333V11.3999C1.58301 10.7003 2.15013 10.1332 2.84969 10.1332H4.51222C4.6871 10.1332 4.82889 10.2753 4.82889 10.4502C4.82853 16.4139 4.81856 18.1279 4.83522 18.6743ZM3.76012 13.2999C3.76012 13.125 3.61833 12.9832 3.44345 12.9832C3.26857 12.9832 3.12678 13.125 3.12678 13.2999V14.6458C3.12678 14.8206 3.26857 14.9624 3.44345 14.9624C3.61833 14.9624 3.76012 14.8206 3.76012 14.6458V13.2999ZM17.4166 11.3999V17.7333C17.4166 18.4329 16.8495 19 16.1499 19H14.4812C14.3027 19 14.1592 18.8526 14.1646 18.6743C14.1814 18.1288 14.171 16.4173 14.1707 10.4502C14.1707 10.2753 14.3125 10.1332 14.4874 10.1332H16.1499C16.8495 10.1332 17.4166 10.7003 17.4166 11.3999ZM15.8728 13.2999C15.8728 13.125 15.731 12.9832 15.5561 12.9832C15.3812 12.9832 15.2395 13.125 15.2395 13.2999V14.6458C15.2395 14.8206 15.3812 14.9624 15.5561 14.9624C15.731 14.9624 15.8728 14.8206 15.8728 14.6458V13.2999ZM8.70811 19H10.2915C10.4663 19 10.6081 18.8582 10.6081 18.6833V15.7145C10.6081 15.5396 10.4663 15.3979 10.2915 15.3979H8.70811C8.53323 15.3979 8.39144 15.5396 8.39144 15.7145V18.6833C8.39144 18.8582 8.53323 19 8.70811 19ZM13.5373 6.88732V18.6833C13.5373 18.8582 13.3956 19 13.2207 19H11.5582C11.3833 19 11.2415 18.8582 11.2415 18.6833V15.0812C11.2415 14.9063 11.0997 14.7645 10.9248 14.7645H8.07477C7.89989 14.7645 7.7581 14.9063 7.7581 15.0812V18.6833C7.7581 18.8582 7.61631 19 7.44143 19H5.7789C5.60402 19 5.46223 18.8582 5.46223 18.6833V6.88732C5.46223 6.18775 6.02935 5.62063 6.72892 5.62063H12.2707C12.9703 5.62063 13.5373 6.18775 13.5373 6.88732ZM11.0831 12.1916C11.0831 12.0167 10.9414 11.8749 10.7665 11.8749H8.2331C8.05822 11.8749 7.91643 12.0167 7.91643 12.1916C7.91643 12.3664 8.05822 12.5082 8.2331 12.5082H10.7665C10.9414 12.5082 11.0831 12.3664 11.0831 12.1916ZM11.6373 9.1436C11.6373 8.96872 11.4955 8.82693 11.3207 8.82693H7.67893C7.50405 8.82693 7.36226 8.96872 7.36226 9.1436C7.36226 9.31848 7.50405 9.46027 7.67893 9.46027H11.3207C11.4956 9.46027 11.6373 9.31848 11.6373 9.1436Z" fill="white"/>
</g>
<defs>
<clipPath id="clip0_399_950">
<rect width="19" height="19" fill="white"/>
</clipPath>
</defs>
</svg>
