<svg width="19" height="19" viewBox="0 0 19 19" fill="none" xmlns="http://www.w3.org/2000/svg">
<path d="M2.47304 2.48775L2.48755 2.47321C3.22922 1.76791 4.71033 3.02053 4.71033 3.02053L7.39938 5.13759L10.2303 4.63587C9.82188 4.04386 9.69887 3.45616 9.97114 3.18389C10.3238 2.83124 11.2055 3.14121 11.9405 3.87616C12.069 4.00471 12.1842 4.13775 12.2855 4.27164L14.4591 3.88641L15.907 5.12007L10.0049 7.82827L13.7887 12.4003L16.1454 11.9584L16.7422 12.5544L12.5541 16.7424L11.9582 16.1456L12.4001 13.7889L7.82803 10.0051L5.11983 15.9071L3.88616 14.4592L4.2714 12.2856C4.13747 12.1843 4.00447 12.0692 3.87588 11.9406C3.14093 11.2056 2.83096 10.324 3.18357 9.97134C3.45592 9.69903 4.04366 9.82209 4.63566 10.2304L5.13738 7.39959L3.02033 4.71049C3.02033 4.71049 1.76766 3.22938 2.47304 2.48775Z" fill="white"/>
</svg>
