<svg width="42" height="42" viewBox="0 0 42 42" fill="none" xmlns="http://www.w3.org/2000/svg">
<circle cx="21" cy="21" r="21" fill="#0A909B"/>
<path d="M30.4983 7.88086H22.9827C20.9249 7.88303 19.2575 9.55082 19.2551 11.6083V18.3028H14.1641C12.1065 18.305 10.4389 19.9726 10.4365 22.0302V29.6401L9.35326 29.6419C9.06588 29.6425 8.83301 29.8755 8.83301 30.1629V32.0065C8.83446 33.1792 9.78479 34.1295 10.9573 34.1308H18.5197V34.1299C18.5377 34.1306 18.5556 34.1308 18.5733 34.1308C19.5246 34.1297 20.2955 33.3588 20.2967 32.4074V23.4329H23.5233C24.0841 24.6645 25.4276 25.3383 26.7498 25.0513C28.0721 24.7642 29.0154 23.5939 29.015 22.241V13.6527H32.5025C32.7901 13.6527 33.0235 13.4195 33.0235 13.1318V10.4059C33.0219 9.01209 31.8923 7.88249 30.4983 7.88086ZM10.9573 33.089C10.3597 33.0883 9.87551 32.6037 9.87478 32.0063V30.6826L16.85 30.6712V32.4074C16.8496 32.6418 16.8976 32.8737 16.9905 33.089H10.9573ZM19.2549 32.4071C19.2515 32.7812 18.9473 33.0827 18.5733 33.0827C18.1992 33.0827 17.895 32.7812 17.8916 32.4071V30.1495C17.8916 29.8618 17.6585 29.6287 17.3708 29.6287H17.3699L11.4783 29.6381V22.0302C11.4797 20.5477 12.6814 19.346 14.1641 19.3444H19.7384C19.4239 19.775 19.2546 20.2945 19.2549 20.8278V32.4071ZM20.2967 22.3913V20.8278C20.2967 20.0086 20.9608 19.3444 21.78 19.3444C22.5994 19.3444 23.2634 20.0086 23.2634 20.8278V22.2406C23.2634 22.2914 23.2649 22.3415 23.2674 22.3913H20.2967ZM27.9732 10.4059V22.2406C27.977 22.8983 27.6283 23.5079 27.0593 23.8376C26.4903 24.1677 25.7881 24.1677 25.2191 23.8376C24.6502 23.5079 24.3014 22.8983 24.3052 22.2406V20.8278C24.3034 19.4963 23.2692 18.3942 21.9404 18.3084V18.3028H20.2969V11.6083C20.2985 10.1259 21.5 8.92408 22.9827 8.92264H28.4571C28.1424 9.35325 27.9729 9.8726 27.9732 10.4059ZM31.9817 12.6108H29.015V10.4059C29.015 9.58667 29.6791 8.92264 30.4983 8.92264C31.3175 8.92264 31.9817 9.58667 31.9817 10.4059V12.6108Z" fill="white"/>
<path d="M26.2587 10.5762H21.9097C21.6221 10.5762 21.3887 10.8094 21.3887 11.097C21.3887 11.3847 21.6221 11.6178 21.9097 11.6178H26.2587C26.5463 11.6178 26.7795 11.3847 26.7795 11.097C26.7795 10.8094 26.5463 10.5762 26.2587 10.5762Z" fill="white"/>
<path d="M26.2587 12.541H21.9097C21.6221 12.541 21.3887 12.7741 21.3887 13.0618C21.3887 13.3494 21.6221 13.5826 21.9097 13.5826H26.2587C26.5463 13.5826 26.7795 13.3494 26.7795 13.0618C26.7795 12.7741 26.5463 12.541 26.2587 12.541Z" fill="white"/>
<path d="M26.2587 14.6445H21.9097C21.6221 14.6445 21.3887 14.8778 21.3887 15.1653C21.3887 15.4531 21.6221 15.6861 21.9097 15.6861H26.2587C26.5463 15.6861 26.7795 15.4531 26.7795 15.1653C26.7795 14.8778 26.5463 14.6445 26.2587 14.6445Z" fill="white"/>
<path d="M24.1544 16.75H21.9097C21.6221 16.75 21.3887 16.9832 21.3887 17.2708C21.3887 17.5587 21.6221 17.7918 21.9097 17.7918H24.1544C24.4419 17.7918 24.6752 17.5587 24.6752 17.2708C24.6752 16.9832 24.4419 16.75 24.1544 16.75Z" fill="white"/>
<path d="M13.1419 21.9793H14.5888C14.8765 21.9793 15.1096 21.7462 15.1096 21.4585C15.1096 21.1709 14.8765 20.9375 14.5888 20.9375H13.1419C12.8545 20.9375 12.6211 21.1709 12.6211 21.4585C12.6211 21.7462 12.8545 21.9793 13.1419 21.9793Z" fill="white"/>
<path d="M17.4911 20.9375H16.0442C15.7567 20.9375 15.5234 21.1709 15.5234 21.4585C15.5234 21.7462 15.7567 21.9793 16.0442 21.9793H17.4911C17.7787 21.9793 18.0119 21.7462 18.0119 21.4585C18.0119 21.1709 17.7787 20.9375 17.4911 20.9375Z" fill="white"/>
<path d="M14.6853 23.041H13.1419C12.8545 23.041 12.6211 23.2744 12.6211 23.562C12.6211 23.8497 12.8545 24.0828 13.1419 24.0828H14.6853C14.9728 24.0828 15.2061 23.8497 15.2061 23.562C15.2061 23.2744 14.9728 23.041 14.6853 23.041Z" fill="white"/>
<path d="M13.7943 25.936C13.9623 25.9362 14.0987 26.0725 14.0992 26.2409C14.0992 26.4327 14.2548 26.5881 14.4464 26.5881C14.6381 26.5881 14.7937 26.4327 14.7937 26.2409C14.793 25.8232 14.5327 25.45 14.1412 25.3046V25.23C14.1412 25.038 13.9857 24.8828 13.7939 24.8828C13.602 24.8828 13.4468 25.038 13.4468 25.23V25.3046C12.9928 25.4726 12.7243 25.9416 12.8097 26.4179C12.8952 26.8945 13.3101 27.2411 13.7939 27.2405C13.9609 27.242 14.0958 27.3771 14.0967 27.5442C14.0976 27.7112 13.964 27.8477 13.7972 27.8508H13.7939C13.7928 27.8508 13.7918 27.8508 13.7908 27.8508C13.6235 27.849 13.4888 27.713 13.4886 27.5458C13.4886 27.3541 13.3332 27.1985 13.1413 27.1985C12.9497 27.1985 12.7942 27.3541 12.7942 27.5458C12.7947 27.9638 13.0549 28.3372 13.447 28.4824V28.5865C13.447 28.7783 13.6023 28.9338 13.7943 28.9338C13.9859 28.9338 14.1414 28.7783 14.1414 28.5865V28.4824C14.5952 28.3144 14.8634 27.8453 14.7779 27.3689C14.6926 26.8927 14.278 26.5461 13.7943 26.5463C13.6842 26.5479 13.5817 26.4901 13.5263 26.395C13.4707 26.3 13.4707 26.1825 13.5263 26.0872C13.5817 25.9923 13.6842 25.9344 13.7943 25.936Z" fill="white"/>
<path d="M16.6878 25.936C16.8561 25.9362 16.9922 26.0725 16.9928 26.2409C16.9928 26.4327 17.1483 26.5881 17.3399 26.5881C17.5317 26.5881 17.6872 26.4327 17.6872 26.2409C17.6865 25.8232 17.4263 25.45 17.0348 25.3046V25.23C17.0348 25.038 16.8792 24.8828 16.6877 24.8828C16.4957 24.8828 16.3403 25.038 16.3403 25.23V25.3046C15.8864 25.4726 15.6178 25.9416 15.7033 26.4179C15.7888 26.8945 16.2036 27.2411 16.6877 27.2405C16.8544 27.242 16.9893 27.3771 16.9903 27.5442C16.9912 27.7112 16.8575 27.8477 16.6907 27.8508H16.6877C16.6864 27.8508 16.6853 27.8508 16.6844 27.8508C16.5171 27.849 16.3824 27.713 16.3822 27.5458C16.3822 27.3541 16.2268 27.1985 16.0349 27.1985C15.8433 27.1985 15.6877 27.3541 15.6877 27.5458C15.6884 27.9638 15.9487 28.3372 16.3405 28.4824V28.5865C16.3405 28.7783 16.4959 28.9338 16.6878 28.9338C16.8794 28.9338 17.035 28.7783 17.035 28.5865V28.4824C17.4888 28.3144 17.7571 27.8453 17.6717 27.3689C17.5862 26.8927 17.1715 26.5461 16.6878 26.5463C16.5777 26.5479 16.4752 26.4901 16.4198 26.395C16.3642 26.3 16.3642 26.1825 16.4198 26.0872C16.4752 25.9923 16.5777 25.9344 16.6878 25.936Z" fill="white"/>
</svg>
