<svg width="42" height="42" viewBox="0 0 42 42" fill="none" xmlns="http://www.w3.org/2000/svg">
<circle cx="21" cy="21" r="21" fill="#0A909B"/>
<path d="M27.3311 20.1601C26.3853 20.1591 25.4503 20.357 24.5862 20.7408V14.481C24.5862 14.2135 24.3693 13.9969 24.102 13.9969H23.4862V12.5192C23.4862 12.2519 23.2694 12.0351 23.0021 12.0351H21.9204V11.4552C21.9204 11.1877 21.7036 10.9711 21.4363 10.9711C21.1688 10.9711 20.9522 11.1877 20.9522 11.4552V12.0351H19.841C19.5738 12.0351 19.3569 12.2519 19.3569 12.5192V13.9969H18.7104V12.0786C18.7104 11.8111 18.4936 11.5945 18.2263 11.5945H16.9819V10.09C16.9819 9.82268 16.7651 9.6059 16.4978 9.6059H13.7147V8.72042C13.7147 8.45294 13.4981 8.23633 13.2306 8.23633C12.9633 8.23633 12.7464 8.45294 12.7464 8.72042V9.6059H10.0786C9.81117 9.6059 9.59455 9.82268 9.59455 10.09V11.5945H8.3503C8.08316 11.5945 7.86621 11.8111 7.86621 12.0786V29.8495C7.86621 30.1168 8.08316 30.3336 8.3503 30.3336H21.4548C23.0999 33.1859 26.5556 34.4451 29.6501 33.3198C32.7445 32.1945 34.5842 29.0096 34.0127 25.7667C33.4414 22.5239 30.6239 20.1599 27.3311 20.1601ZM10.5627 10.5741H16.0137V11.5945H10.5627V10.5741ZM14.7791 29.3654H13.7147V26.401H14.7791V29.3654ZM12.7464 29.3654H11.7972V26.401H12.7464V29.3654ZM17.7419 29.3654H15.7473V25.9169C15.7473 25.6495 15.5307 25.4329 15.2632 25.4329H11.313C11.0458 25.4329 10.8289 25.6495 10.8289 25.9169V29.3654H8.83456V12.5627H17.7422L17.7419 29.3654ZM20.3252 13.0033H22.518V13.9969H20.3252V13.0033ZM18.7104 29.3654V14.9651H23.6182V21.2694C23.268 21.499 22.9399 21.7606 22.6376 22.0503C22.5902 22.0353 22.5407 22.0274 22.4909 22.0274H19.862C19.5947 22.0274 19.3779 22.2443 19.3779 22.5116C19.3779 22.7791 19.5947 22.9957 19.862 22.9957H21.8173C21.5345 23.3897 21.2946 23.8126 21.1019 24.2577H19.862C19.5947 24.2577 19.3779 24.4744 19.3779 24.7418C19.3779 25.0091 19.5947 25.2258 19.862 25.2258H20.7672C20.6441 25.6961 20.572 26.178 20.5525 26.664H19.862C19.5947 26.664 19.3779 26.8806 19.3779 27.1481C19.3779 27.4152 19.5947 27.6321 19.862 27.6321H20.5809C20.6407 28.2256 20.7795 28.8084 20.9929 29.3654H18.7104ZM27.3313 32.7614C24.1188 32.7618 21.5144 30.1575 21.5144 26.9453C21.5142 23.7328 24.1185 21.1284 27.3309 21.1284C30.5434 21.1284 33.1476 23.7325 33.1476 26.9451C33.1441 30.1559 30.5419 32.7579 27.3311 32.7614H27.3313Z" fill="white"/>
<path d="M10.3542 17.6559H16.2228C16.4901 17.6559 16.7069 17.4391 16.7069 17.1716C16.7069 16.9044 16.4901 16.6875 16.2228 16.6875H10.3542C10.0869 16.6875 9.87012 16.9044 9.87012 17.1716C9.87012 17.4391 10.0869 17.6559 10.3542 17.6559Z" fill="white"/>
<path d="M10.3542 20.3551H16.2228C16.4901 20.3551 16.7069 20.1385 16.7069 19.871C16.7069 19.6037 16.4901 19.3867 16.2228 19.3867H10.3542C10.0869 19.3867 9.87012 19.6037 9.87012 19.871C9.87012 20.1385 10.0869 20.3551 10.3542 20.3551Z" fill="white"/>
<path d="M10.3542 23.0551H16.2228C16.4901 23.0551 16.7069 22.8385 16.7069 22.571C16.7069 22.3037 16.4901 22.0869 16.2228 22.0869H10.3542C10.0869 22.0869 9.87012 22.3037 9.87012 22.571C9.87012 22.8385 10.0869 23.0551 10.3542 23.0551Z" fill="white"/>
<path d="M10.3542 14.9565H16.2228C16.4901 14.9565 16.7069 14.7399 16.7069 14.4724C16.7069 14.2051 16.4901 13.9883 16.2228 13.9883H10.3542C10.0869 13.9883 9.87012 14.2051 9.87012 14.4724C9.87012 14.7399 10.0869 14.9565 10.3542 14.9565Z" fill="white"/>
<path d="M19.862 20.5903H22.3857C22.653 20.5903 22.8698 20.3735 22.8698 20.1062C22.8698 19.8387 22.653 19.6221 22.3857 19.6221H19.862C19.5947 19.6221 19.3779 19.8387 19.3779 20.1062C19.3779 20.3735 19.5947 20.5903 19.862 20.5903Z" fill="white"/>
<path d="M19.862 18.2428H22.3857C22.653 18.2428 22.8698 18.0262 22.8698 17.7587C22.8698 17.4914 22.653 17.2744 22.3857 17.2744H19.862C19.5947 17.2744 19.3779 17.4914 19.3779 17.7587C19.3779 18.0262 19.5947 18.2428 19.862 18.2428Z" fill="white"/>
<path d="M29.543 28.4737C30.6104 27.0471 30.3942 25.0381 29.0475 23.8713C27.7007 22.7047 25.6814 22.777 24.4217 24.0369C23.1618 25.2967 23.0895 27.3159 24.2561 28.6627C25.4229 30.0094 27.4317 30.2257 28.8585 29.1583L30.4011 30.7012C30.5902 30.89 30.8968 30.8903 31.0858 30.7012C31.2747 30.512 31.2747 30.2055 31.0859 30.0165L29.543 28.4737ZM24.4018 26.442C24.4006 25.3501 25.1293 24.392 26.182 24.1014C27.2346 23.811 28.3517 24.2603 28.9104 25.1985C29.4691 26.1368 29.3316 27.3327 28.5749 28.1198C28.5489 28.1409 28.5252 28.1647 28.5041 28.1904C27.8036 28.8642 26.7687 29.054 25.8746 28.6732C24.9807 28.2922 24.4008 27.4141 24.4015 26.4422L24.4018 26.442Z" fill="white"/>
</svg>
