<svg width="36" height="36" viewBox="0 0 36 36" fill="none" xmlns="http://www.w3.org/2000/svg">
<path d="M32.8359 8.50781H31.7812V7.45312C31.7812 5.70846 30.3619 4.28906 28.6172 4.28906H5.27344C3.52877 4.28906 2.10938 5.70846 2.10938 7.45312V25.3828H1.05469C0.472219 25.3828 0 25.855 0 26.4375V28.5469C0 30.2915 1.4194 31.7109 3.16406 31.7109H32.8359C34.5806 31.7109 36 30.2915 36 28.5469V11.6719C36 9.92721 34.5806 8.50781 32.8359 8.50781ZM4.21875 7.45312C4.21875 6.87157 4.69188 6.39844 5.27344 6.39844H28.6172C29.1987 6.39844 29.6719 6.87157 29.6719 7.45312V8.50781H24.3984C22.6538 8.50781 21.2344 9.92721 21.2344 11.6719V25.3828H4.21875V7.45312ZM2.10938 28.5469V27.4922H21.2344V28.5469C21.2344 28.9166 21.2987 29.2714 21.4158 29.6016H3.16406C2.58251 29.6016 2.10938 29.1284 2.10938 28.5469ZM33.8906 28.5469C33.8906 29.1284 33.4175 29.6016 32.8359 29.6016H24.3984C23.8169 29.6016 23.3438 29.1284 23.3438 28.5469V11.6719C23.3438 11.0903 23.8169 10.6172 24.3984 10.6172H32.8359C33.4175 10.6172 33.8906 11.0903 33.8906 11.6719V28.5469Z" fill="white"/>
<path d="M29.6719 25.3828H27.5625C26.98 25.3828 26.5078 25.855 26.5078 26.4375C26.5078 27.02 26.98 27.4922 27.5625 27.4922H29.6719C30.2543 27.4922 30.7266 27.02 30.7266 26.4375C30.7266 25.855 30.2543 25.3828 29.6719 25.3828Z" fill="white"/>
<path d="M28.6172 14.8359C29.1997 14.8359 29.6719 14.3637 29.6719 13.7812C29.6719 13.1988 29.1997 12.7266 28.6172 12.7266C28.0347 12.7266 27.5625 13.1988 27.5625 13.7812C27.5625 14.3637 28.0347 14.8359 28.6172 14.8359Z" fill="white"/>
</svg>
