<svg width="42" height="42" viewBox="0 0 42 42" fill="none" xmlns="http://www.w3.org/2000/svg">
<circle cx="21" cy="21" r="21" fill="#0A909B"/>
<path d="M31.7876 20.6768H31.3293V15.3835C31.3267 13.1184 29.4911 11.2829 27.2261 11.2803H14.7382C12.4731 11.2829 10.6376 13.1184 10.6349 15.3835V20.6768H10.1766C8.89648 20.6783 7.85872 21.7159 7.85742 22.996V26.1339C7.85872 27.414 8.89648 28.4514 10.1766 28.453H11.1534V29.1119C11.1541 29.7388 11.6623 30.2468 12.2893 30.2475H14.084C14.7108 30.2468 15.2192 29.7388 15.2199 29.1119V28.453H26.7445V29.1119C26.7452 29.7388 27.2532 30.2468 27.8803 30.2475H29.6755C30.3025 30.2468 30.8107 29.7388 30.8113 29.1119V28.453H31.7882C33.0683 28.4514 34.1061 27.414 34.1074 26.1339V22.996C34.1061 21.7157 33.0681 20.6781 31.7876 20.6768ZM11.7053 15.3835C11.7071 13.7094 13.0641 12.3528 14.7382 12.3506H27.2261C28.9002 12.3528 30.2569 13.7094 30.2588 15.3835V20.6768H29.2761V18.8225C29.2752 18.0736 28.6684 17.4668 27.9195 17.4659H22.7858C22.0371 17.4668 21.4301 18.0738 21.4294 18.8225V20.6768H20.5349V18.8225C20.5339 18.0738 19.9272 17.4668 19.1783 17.4659H14.0449C13.296 17.4668 12.6891 18.0736 12.6881 18.8225V20.6768H11.7053V15.3835ZM28.2056 20.6768H22.4999V18.8225C22.4999 18.6646 22.6279 18.5366 22.7858 18.5364H27.9195C28.0774 18.5366 28.2054 18.6646 28.2056 18.8225V20.6768ZM19.4645 20.6768H13.7585V18.8225C13.7588 18.6646 13.8868 18.5366 14.0449 18.5364H19.1783C19.3364 18.5366 19.4644 18.6646 19.4645 18.8225V20.6768ZM10.1766 21.7473H31.7876C32.477 21.7483 33.0356 22.3069 33.0363 22.996V25.3429H8.92773V22.996C8.92848 22.3069 9.48726 21.7483 10.1766 21.7473ZM14.1494 29.1115C14.1494 29.1476 14.1204 29.1768 14.0843 29.1768H12.2891C12.2531 29.1768 12.224 29.1476 12.224 29.1115V28.453H14.1494V29.1115ZM29.7404 29.1115C29.7404 29.1476 29.7112 29.1768 29.6751 29.1768H27.8803C27.8442 29.1768 27.8152 29.1476 27.8152 29.1115V28.453H29.7406L29.7404 29.1115ZM31.7876 27.3827H10.1766C9.59514 27.3814 9.09105 26.9798 8.96066 26.4132H33.0036C32.873 26.9798 32.3693 27.3814 31.7876 27.3827Z" fill="white"/>
</svg>
