<svg width="40" height="40" viewBox="0 0 40 40" fill="none" xmlns="http://www.w3.org/2000/svg">
<g clip-path="url(#clip0_532_711)">
<path d="M36.4844 14.2188H3.51562C1.57711 14.2188 0 15.7959 0 17.7344V36.4844C0 38.4229 1.57711 40 3.51562 40H36.4844C38.4229 40 40 38.4229 40 36.4844V17.7344C40 15.7959 38.4229 14.2188 36.4844 14.2188ZM37.6562 36.4844C37.6562 37.1305 37.1305 37.6562 36.4844 37.6562H3.51562C2.86945 37.6562 2.34375 37.1305 2.34375 36.4844V17.7344C2.34375 17.0882 2.86945 16.5625 3.51562 16.5625H36.4844C37.1305 16.5625 37.6562 17.0882 37.6562 17.7344V36.4844Z" fill="#0A909B"/>
<path d="M24.6875 32.9688H10.625C9.97781 32.9688 9.45312 33.4934 9.45312 34.1406C9.45312 34.7878 9.97781 35.3125 10.625 35.3125H24.6875C25.3347 35.3125 25.8594 34.7878 25.8594 34.1406C25.8594 33.4934 25.3347 32.9688 24.6875 32.9688Z" fill="#0A909B"/>
<path d="M11.7129 5.77012C12.0129 5.77012 12.3128 5.65574 12.5415 5.42684C16.6537 1.31473 23.3448 1.31457 27.4571 5.42684C27.9147 5.88449 28.6568 5.88449 29.1144 5.42684C29.5721 4.96918 29.5721 4.22723 29.1144 3.76957C24.0883 -1.25652 15.9104 -1.25652 10.8843 3.76957C10.4266 4.22723 10.4266 4.96918 10.8843 5.42684C11.1131 5.65574 11.413 5.77012 11.7129 5.77012Z" fill="#0A909B"/>
<path d="M25.7996 8.74219C26.2573 8.28453 26.2573 7.54258 25.7996 7.08492C24.2524 5.53766 22.1925 4.68555 19.9993 4.68555C19.9992 4.68555 19.9993 4.68555 19.9991 4.68555C17.806 4.68555 15.7459 5.53773 14.1987 7.08492C13.7411 7.54258 13.7411 8.28453 14.1987 8.74219C14.4275 8.97102 14.7275 9.08547 15.0273 9.08547C15.3271 9.08547 15.6271 8.97109 15.8559 8.74219C16.9605 7.63758 18.432 7.0293 19.9992 7.0293C21.5664 7.0293 23.0378 7.63766 24.1423 8.74219C24.6 9.19984 25.3421 9.19984 25.7996 8.74219Z" fill="#0A909B"/>
<path d="M17.5151 10.3999C17.0575 10.8575 17.0575 11.5995 17.5151 12.0571C17.9727 12.5148 18.7147 12.5148 19.1724 12.0571C19.3937 11.8358 19.688 11.7139 20.001 11.7139C20.3139 11.7139 20.6082 11.8358 20.8296 12.0571C21.0584 12.286 21.3583 12.4004 21.6582 12.4004C21.958 12.4004 22.258 12.2861 22.4868 12.0571C22.9444 11.5995 22.9444 10.8575 22.4868 10.3999C21.8228 9.73582 20.9399 9.37012 20.0009 9.37012C19.0619 9.37012 18.1791 9.7359 17.5151 10.3999Z" fill="#0A909B"/>
<path d="M5.9375 21.25C6.58471 21.25 7.10938 20.7253 7.10938 20.0781C7.10938 19.4309 6.58471 18.9062 5.9375 18.9062C5.29029 18.9062 4.76562 19.4309 4.76562 20.0781C4.76562 20.7253 5.29029 21.25 5.9375 21.25Z" fill="#0A909B"/>
<path d="M10.625 21.25C11.2722 21.25 11.7969 20.7253 11.7969 20.0781C11.7969 19.4309 11.2722 18.9062 10.625 18.9062C9.97779 18.9062 9.45312 19.4309 9.45312 20.0781C9.45312 20.7253 9.97779 21.25 10.625 21.25Z" fill="#0A909B"/>
<path d="M15.3125 21.25C15.9597 21.25 16.4844 20.7253 16.4844 20.0781C16.4844 19.4309 15.9597 18.9062 15.3125 18.9062C14.6653 18.9062 14.1406 19.4309 14.1406 20.0781C14.1406 20.7253 14.6653 21.25 15.3125 21.25Z" fill="#0A909B"/>
<path d="M20 21.25C20.6472 21.25 21.1719 20.7253 21.1719 20.0781C21.1719 19.4309 20.6472 18.9062 20 18.9062C19.3528 18.9062 18.8281 19.4309 18.8281 20.0781C18.8281 20.7253 19.3528 21.25 20 21.25Z" fill="#0A909B"/>
<path d="M24.6875 21.25C25.3347 21.25 25.8594 20.7253 25.8594 20.0781C25.8594 19.4309 25.3347 18.9062 24.6875 18.9062C24.0403 18.9062 23.5156 19.4309 23.5156 20.0781C23.5156 20.7253 24.0403 21.25 24.6875 21.25Z" fill="#0A909B"/>
<path d="M29.375 21.25C30.0222 21.25 30.5469 20.7253 30.5469 20.0781C30.5469 19.4309 30.0222 18.9062 29.375 18.9062C28.7278 18.9062 28.2031 19.4309 28.2031 20.0781C28.2031 20.7253 28.7278 21.25 29.375 21.25Z" fill="#0A909B"/>
<path d="M34.0625 21.25C34.7097 21.25 35.2344 20.7253 35.2344 20.0781C35.2344 19.4309 34.7097 18.9062 34.0625 18.9062C33.4153 18.9062 32.8906 19.4309 32.8906 20.0781C32.8906 20.7253 33.4153 21.25 34.0625 21.25Z" fill="#0A909B"/>
<path d="M5.9375 25.9375C6.58471 25.9375 7.10938 25.4128 7.10938 24.7656C7.10938 24.1184 6.58471 23.5938 5.9375 23.5938C5.29029 23.5938 4.76562 24.1184 4.76562 24.7656C4.76562 25.4128 5.29029 25.9375 5.9375 25.9375Z" fill="#0A909B"/>
<path d="M10.625 25.9375C11.2722 25.9375 11.7969 25.4128 11.7969 24.7656C11.7969 24.1184 11.2722 23.5938 10.625 23.5938C9.97779 23.5938 9.45312 24.1184 9.45312 24.7656C9.45312 25.4128 9.97779 25.9375 10.625 25.9375Z" fill="#0A909B"/>
<path d="M15.3125 25.9375C15.9597 25.9375 16.4844 25.4128 16.4844 24.7656C16.4844 24.1184 15.9597 23.5938 15.3125 23.5938C14.6653 23.5938 14.1406 24.1184 14.1406 24.7656C14.1406 25.4128 14.6653 25.9375 15.3125 25.9375Z" fill="#0A909B"/>
<path d="M20 25.9375C20.6472 25.9375 21.1719 25.4128 21.1719 24.7656C21.1719 24.1184 20.6472 23.5938 20 23.5938C19.3528 23.5938 18.8281 24.1184 18.8281 24.7656C18.8281 25.4128 19.3528 25.9375 20 25.9375Z" fill="#0A909B"/>
<path d="M24.6875 25.9375C25.3347 25.9375 25.8594 25.4128 25.8594 24.7656C25.8594 24.1184 25.3347 23.5938 24.6875 23.5938C24.0403 23.5938 23.5156 24.1184 23.5156 24.7656C23.5156 25.4128 24.0403 25.9375 24.6875 25.9375Z" fill="#0A909B"/>
<path d="M29.375 25.9375C30.0222 25.9375 30.5469 25.4128 30.5469 24.7656C30.5469 24.1184 30.0222 23.5938 29.375 23.5938C28.7278 23.5938 28.2031 24.1184 28.2031 24.7656C28.2031 25.4128 28.7278 25.9375 29.375 25.9375Z" fill="#0A909B"/>
<path d="M34.0625 25.9375C34.7097 25.9375 35.2344 25.4128 35.2344 24.7656C35.2344 24.1184 34.7097 23.5938 34.0625 23.5938C33.4153 23.5938 32.8906 24.1184 32.8906 24.7656C32.8906 25.4128 33.4153 25.9375 34.0625 25.9375Z" fill="#0A909B"/>
<path d="M5.9375 30.625C6.58471 30.625 7.10938 30.1003 7.10938 29.4531C7.10938 28.8059 6.58471 28.2812 5.9375 28.2812C5.29029 28.2812 4.76562 28.8059 4.76562 29.4531C4.76562 30.1003 5.29029 30.625 5.9375 30.625Z" fill="#0A909B"/>
<path d="M10.625 30.625C11.2722 30.625 11.7969 30.1003 11.7969 29.4531C11.7969 28.8059 11.2722 28.2812 10.625 28.2812C9.97779 28.2812 9.45312 28.8059 9.45312 29.4531C9.45312 30.1003 9.97779 30.625 10.625 30.625Z" fill="#0A909B"/>
<path d="M15.3125 30.625C15.9597 30.625 16.4844 30.1003 16.4844 29.4531C16.4844 28.8059 15.9597 28.2812 15.3125 28.2812C14.6653 28.2812 14.1406 28.8059 14.1406 29.4531C14.1406 30.1003 14.6653 30.625 15.3125 30.625Z" fill="#0A909B"/>
<path d="M20 30.625C20.6472 30.625 21.1719 30.1003 21.1719 29.4531C21.1719 28.8059 20.6472 28.2812 20 28.2812C19.3528 28.2812 18.8281 28.8059 18.8281 29.4531C18.8281 30.1003 19.3528 30.625 20 30.625Z" fill="#0A909B"/>
<path d="M24.6875 30.625C25.3347 30.625 25.8594 30.1003 25.8594 29.4531C25.8594 28.8059 25.3347 28.2812 24.6875 28.2812C24.0403 28.2812 23.5156 28.8059 23.5156 29.4531C23.5156 30.1003 24.0403 30.625 24.6875 30.625Z" fill="#0A909B"/>
<path d="M29.375 30.625C30.0222 30.625 30.5469 30.1003 30.5469 29.4531C30.5469 28.8059 30.0222 28.2812 29.375 28.2812C28.7278 28.2812 28.2031 28.8059 28.2031 29.4531C28.2031 30.1003 28.7278 30.625 29.375 30.625Z" fill="#0A909B"/>
<path d="M34.0625 30.625C34.7097 30.625 35.2344 30.1003 35.2344 29.4531C35.2344 28.8059 34.7097 28.2812 34.0625 28.2812C33.4153 28.2812 32.8906 28.8059 32.8906 29.4531C32.8906 30.1003 33.4153 30.625 34.0625 30.625Z" fill="#0A909B"/>
<path d="M5.9375 35.3125C6.58471 35.3125 7.10938 34.7878 7.10938 34.1406C7.10938 33.4934 6.58471 32.9688 5.9375 32.9688C5.29029 32.9688 4.76562 33.4934 4.76562 34.1406C4.76562 34.7878 5.29029 35.3125 5.9375 35.3125Z" fill="#0A909B"/>
<path d="M29.375 35.3125C30.0222 35.3125 30.5469 34.7878 30.5469 34.1406C30.5469 33.4934 30.0222 32.9688 29.375 32.9688C28.7278 32.9688 28.2031 33.4934 28.2031 34.1406C28.2031 34.7878 28.7278 35.3125 29.375 35.3125Z" fill="#0A909B"/>
<path d="M34.0625 35.3125C34.7097 35.3125 35.2344 34.7878 35.2344 34.1406C35.2344 33.4934 34.7097 32.9688 34.0625 32.9688C33.4153 32.9688 32.8906 33.4934 32.8906 34.1406C32.8906 34.7878 33.4153 35.3125 34.0625 35.3125Z" fill="#0A909B"/>
</g>
<defs>
<clipPath id="clip0_532_711">
<rect width="40" height="40" fill="white"/>
</clipPath>
</defs>
</svg>
