<svg width="40" height="40" viewBox="0 0 40 40" fill="none" xmlns="http://www.w3.org/2000/svg">
<g clip-path="url(#clip0_532_701)">
<path d="M36.4844 0H3.51562C1.57711 0 0 1.57711 0 3.51562V24.6875C0 26.626 1.57711 28.2031 3.51562 28.2031H14.5829L15.774 30.625H15.3125C12.0816 30.625 9.45312 33.2535 9.45312 36.4844C9.45312 37.1316 9.97781 37.6562 10.625 37.6562H21.3734C21.8572 39.0202 23.1598 40 24.6875 40H36.4844C38.4229 40 40 38.4229 40 36.4844C40 36.1409 40 18.2796 40 17.6562V3.51562C40 1.57711 38.4229 0 36.4844 0ZM21.1719 35.3125H11.9977C12.4813 33.9484 13.7847 32.9688 15.3125 32.9688H21.1719V35.3125ZM21.1719 30.625H18.3859L17.1948 28.2031H21.1719V30.625ZM21.1719 25.8594H3.51562C2.86945 25.8594 2.34375 25.3337 2.34375 24.6875V23.5156H21.1719V25.8594ZM37.6562 36.4844C37.6562 37.1305 37.1305 37.6562 36.4844 37.6562H24.6875C24.0413 37.6562 23.5156 37.1305 23.5156 36.4844V35.3125H37.6562V36.4844ZM37.6562 32.9688H23.5156V21.1719H37.6562C37.6562 22.5608 37.6562 31.0453 37.6562 32.9688ZM37.6562 18.8281H23.5156V17.6562C23.5156 17.0101 24.0413 16.4844 24.6875 16.4844H36.4844C37.1305 16.4844 37.6562 17.0101 37.6562 17.6562V18.8281ZM37.6562 14.3422C37.2895 14.2121 36.8952 14.1406 36.4844 14.1406H24.6875C22.749 14.1406 21.1719 15.7177 21.1719 17.6562V21.1719H2.34375V3.51562C2.34375 2.86945 2.86945 2.34375 3.51562 2.34375H36.4844C37.1305 2.34375 37.6562 2.86945 37.6562 3.51562V14.3422Z" fill="#0A909B"/>
<path d="M18.4983 7.46631L16.1545 5.04444C15.7045 4.57936 14.9626 4.56717 14.4975 5.01725C14.0324 5.46733 14.0202 6.2092 14.4703 6.67428L14.8914 7.10936H5.85938C5.21219 7.10936 4.6875 7.63405 4.6875 8.28123C4.6875 8.92842 5.21219 9.45311 5.85938 9.45311H14.8271L14.4838 9.79639C14.0262 10.254 14.0262 10.996 14.4838 11.4537C14.9414 11.9113 15.6834 11.9114 16.1411 11.4537L18.4846 9.11006C18.9328 8.66256 18.9444 7.92655 18.4983 7.46631Z" fill="#0A909B"/>
<path d="M17.6568 14.1407H8.68906L9.03226 13.7974C9.48992 13.3397 9.48992 12.5978 9.03226 12.1401C8.57468 11.6825 7.83265 11.6825 7.375 12.1401L5.03148 14.4837C4.6 14.915 4.57984 15.6003 4.95359 16.0552C4.9782 16.0852 5.00414 16.1139 5.03148 16.1414L7.375 18.485C7.83257 18.9426 8.57461 18.9427 9.03226 18.485C9.48992 18.0273 9.48992 17.2854 9.03226 16.8277L8.68906 16.4844H17.6568C18.304 16.4844 18.8287 15.9597 18.8287 15.3125C18.8287 14.6654 18.304 14.1407 17.6568 14.1407Z" fill="#0A909B"/>
</g>
<defs>
<clipPath id="clip0_532_701">
<rect width="40" height="40" fill="white"/>
</clipPath>
</defs>
</svg>
