<svg width="30" height="30" viewBox="0 0 30 30" fill="none" xmlns="http://www.w3.org/2000/svg">
<g clip-path="url(#clip0_657_21848)">
<path d="M22.0949 8.30985C22.3742 8.30985 22.6506 8.32249 22.9239 8.34578V4.71752C22.9239 4.3466 22.6232 4.0459 22.2523 4.0459H0.671621C0.300702 4.04596 0 4.3466 0 4.71752V10.5739H15.8881C17.5681 9.16187 19.7337 8.30985 22.0949 8.30985ZM5.29432 7.33326C5.29432 7.81799 4.90135 8.21097 4.41662 8.21097C3.93189 8.21097 3.53891 7.81799 3.53891 7.33326V7.28101C3.53891 6.79628 3.93189 6.4033 4.41662 6.4033C4.90135 6.4033 5.29432 6.79628 5.29432 7.28101V7.33326ZM8.80515 7.33326C8.80515 7.81799 8.41217 8.21097 7.92744 8.21097C7.44271 8.21097 7.04974 7.81799 7.04974 7.33326V7.28101C7.04974 6.79628 7.44271 6.4033 7.92744 6.4033C8.41217 6.4033 8.80515 6.79628 8.80515 7.28101V7.33326ZM12.316 7.33326C12.316 7.81799 11.923 8.21097 11.4383 8.21097C10.9535 8.21097 10.5606 7.81799 10.5606 7.33326V7.28101C10.5606 6.79628 10.9535 6.4033 11.4383 6.4033C11.923 6.4033 12.316 6.79628 12.316 7.28101V7.33326Z" fill="#0A909B"/>
<path d="M22.0979 10.0654C18.0357 10.0654 14.6799 13.1455 14.2418 17.0928H12.4775C12.4514 17.3819 12.4375 17.6746 12.4375 17.9705C12.4375 18.2664 12.4514 18.559 12.4776 18.8482H14.2419C14.68 22.7954 18.0358 25.8755 22.0979 25.8755C26.4568 25.8755 30.003 22.3293 30.003 17.9705C30.003 13.6116 26.4567 10.0654 22.0979 10.0654ZM22.0979 24.1201C19.005 24.1201 16.4384 21.8248 16.0112 18.8482H17.7919C18.1998 20.852 19.9754 22.3647 22.0979 22.3647C24.5209 22.3647 26.4921 20.3935 26.4921 17.9705C26.4921 15.5475 24.5208 13.5763 22.0979 13.5763C19.9754 13.5763 18.1998 15.0889 17.7919 17.0928H16.0112C16.4384 14.1162 19.005 11.8208 22.0979 11.8208C25.4888 11.8208 28.2475 14.5795 28.2475 17.9705C28.2475 21.3614 25.4888 24.1201 22.0979 24.1201ZM22.0979 17.0928H19.6098C19.9723 16.068 20.9505 15.3317 22.0979 15.3317C23.5529 15.3317 24.7367 16.5154 24.7367 17.9705C24.7367 19.4255 23.5529 20.6093 22.0979 20.6093C20.9505 20.6093 19.9723 19.8729 19.6098 18.8482H22.0979C22.5826 18.8482 22.9756 18.4552 22.9756 17.9705C22.9756 17.4857 22.5827 17.0928 22.0979 17.0928Z" fill="#0A909B"/>
<path d="M9.52627 21.0371C9.39134 21.2759 9.13821 21.4237 8.8639 21.4237H4.29924C4.02873 21.4237 3.77853 21.28 3.64219 21.0464C3.50579 20.8127 3.5038 20.5242 3.63692 20.2887L4.94704 17.9699L3.63692 15.6512C3.50386 15.4156 3.50585 15.1271 3.64219 14.8935C3.77853 14.6598 4.02873 14.5162 4.29924 14.5162H8.8639C9.13821 14.5162 9.39134 14.6639 9.52627 14.9027L10.7634 17.0923H12.4745C12.6346 15.3252 13.2723 13.694 14.2574 12.3291H0V25.2819C0 25.6528 0.300702 25.9535 0.671621 25.9535H16.6616C14.3394 24.3681 12.7415 21.7971 12.4746 18.8478H10.7633L9.52627 21.0371Z" fill="#0A909B"/>
<path d="M6.00006 16.2715L6.95963 17.9698L6 19.6682H8.27987L9.23944 17.9698L8.27987 16.2715H6.00006Z" fill="#0A909B"/>
</g>
<defs>
<clipPath id="clip0_657_21848">
<rect width="30" height="30" fill="white"/>
</clipPath>
</defs>
</svg>
