<svg width="60" height="61" viewBox="0 0 60 61" fill="none" xmlns="http://www.w3.org/2000/svg">
<path fill-rule="evenodd" clip-rule="evenodd" d="M30 60.735C13.4431 60.735 0 47.313 0 30.7562C0 14.1993 13.4431 0.777344 30 0.777344C46.5569 0.777344 60 14.1993 60 30.7562C60 47.313 46.5569 60.735 30 60.735Z" fill="#0A909B"/>
<path d="M18.75 35.9318C18.2527 35.9318 17.7758 35.7344 17.4242 35.383C17.0725 35.0317 16.875 34.5551 16.875 34.0582V32.1845C16.8749 31.8831 16.9476 31.5862 17.0868 31.3189C17.226 31.0516 17.4277 30.8218 17.6747 30.649L26.6503 24.3722C26.7906 24.2742 26.9551 24.2164 27.1258 24.2052C27.2966 24.1939 27.4673 24.2296 27.6192 24.3084C27.7711 24.3871 27.8986 24.506 27.9878 24.652C28.0769 24.798 28.1244 24.9656 28.125 25.1366V31.6945C28.1251 31.8819 28.0689 32.0649 27.9638 32.2201C27.8587 32.3752 27.7094 32.4953 27.5353 32.5648L19.4456 35.7979C19.2244 35.8863 18.9883 35.9318 18.75 35.9318ZM26.25 26.9382L18.75 32.1845V34.0582L26.25 31.0603V26.9382Z" fill="white"/>
<path d="M41.25 35.9307C41.0111 35.9309 40.7743 35.8854 40.5525 35.7968L32.4638 32.5637C32.2898 32.4941 32.1408 32.3739 32.0358 32.2188C31.9309 32.0637 31.8749 31.8807 31.875 31.6934V25.1355C31.8751 24.9643 31.9222 24.7963 32.0111 24.6499C32.1001 24.5034 32.2275 24.3842 32.3795 24.3051C32.5316 24.226 32.7024 24.1901 32.8735 24.2012C33.0445 24.2123 33.2092 24.2701 33.3497 24.3683L42.3244 30.6451C42.5717 30.8179 42.7736 31.0478 42.913 31.3153C43.0524 31.5828 43.1251 31.8799 43.125 32.1815V34.0552C43.125 34.5521 42.9275 35.0287 42.5758 35.3801C42.2242 35.7315 41.7473 35.9289 41.25 35.9289V35.9307ZM33.75 31.0592L41.25 34.0571V32.1834L33.75 26.9371V31.0592Z" fill="white"/>
<path d="M34.6875 43.2957C34.3961 43.2952 34.1088 43.2269 33.8484 43.0961L30 41.1728L26.1563 43.0961C25.8702 43.2402 25.552 43.3086 25.2319 43.2948C24.9119 43.281 24.6007 43.1856 24.3281 43.0175C24.0554 42.8494 23.8304 42.6144 23.6745 42.3347C23.5186 42.0551 23.437 41.7402 23.4375 41.4201V38.7529C23.4376 38.4444 23.5138 38.1408 23.6595 37.8688C23.8053 37.5969 24.0159 37.3651 24.2728 37.194L26.25 35.8768V21.3886C26.2499 20.8796 26.3536 20.376 26.5547 19.9084C26.7558 19.4408 27.0501 19.019 27.4197 18.6688C27.7893 18.3186 28.2264 18.0473 28.7043 17.8714C29.1823 17.6956 29.6911 17.6188 30.1997 17.6459C31.1789 17.7184 32.0929 18.1635 32.7535 18.8894C33.414 19.6154 33.7707 20.5669 33.75 21.5479V35.8815L35.7272 37.1987C35.9834 37.3693 36.1937 37.6004 36.3394 37.8714C36.485 38.1425 36.5617 38.4452 36.5625 38.7529V41.4201C36.5625 41.917 36.365 42.3936 36.0133 42.745C35.6617 43.0964 35.1848 43.2938 34.6875 43.2938V43.2957ZM30 39.3C30.2912 39.2996 30.5785 39.367 30.8391 39.4968L34.6875 41.4201V38.7529L32.7103 37.4357C32.4534 37.2647 32.2428 37.0329 32.097 36.7609C31.9513 36.489 31.8751 36.1853 31.875 35.8768V21.5479C31.8899 21.0481 31.7155 20.5611 31.3867 20.1842C31.0578 19.8073 30.5988 19.5683 30.1013 19.5149C29.8466 19.5012 29.5919 19.5395 29.3526 19.6274C29.1133 19.7154 28.8945 19.8512 28.7095 20.0266C28.5245 20.202 28.3773 20.4132 28.2768 20.6474C28.1763 20.8816 28.1246 21.1338 28.125 21.3886V35.8768C28.1249 36.1853 28.0487 36.489 27.903 36.7609C27.7572 37.0329 27.5466 37.2647 27.2897 37.4357L25.3125 38.7529V41.4201L29.1609 39.4968C29.4215 39.367 29.7088 39.2996 30 39.3Z" fill="white"/>
</svg>
