<svg width="55" height="55" viewBox="0 0 55 55" fill="none" xmlns="http://www.w3.org/2000/svg">
<path opacity="0.5" d="M47.7309 15.3844C45.7807 14.674 43.6288 14.7679 41.7473 15.6456L36.3757 18.1504L26.3771 11.3969C25.7103 10.9454 24.8555 10.879 24.1267 11.2181L21.5234 12.4327C20.2401 13.0308 19.8001 14.6396 20.6021 15.8061L25.6438 23.1531L21.0421 25.2981C20.2561 25.6648 19.328 25.5548 18.6496 25.0163L16.8553 23.5908C16.1746 23.0523 15.2488 22.9423 14.4628 23.309L11.5936 24.6473C10.4455 25.1813 9.95047 26.5448 10.4844 27.6929L14.3573 36.0002C15.4276 38.2942 18.1546 39.2865 20.4486 38.2163L51.6038 23.6894C52.7519 23.1554 53.2469 21.7919 52.713 20.6438L52.1446 19.4269C51.2669 17.5454 49.6788 16.0902 47.7286 15.3821L47.7309 15.3844Z" fill="#0A909B"/>
<path d="M13.935 40.3703C13.2086 40.3703 12.4775 40.242 11.774 39.9876C10.1927 39.4101 8.93004 38.2528 8.21733 36.7289L4.34442 28.4216C3.40942 26.4164 4.28025 24.0239 6.28546 23.0912L9.15462 21.7528C10.5411 21.1066 12.1452 21.2968 13.3415 22.2455L15.1359 23.6687C15.3077 23.8039 15.5369 23.8314 15.7363 23.7397L18.4977 22.4518L14.6042 16.7776C13.935 15.8014 13.7311 14.5891 14.0427 13.4478C14.3544 12.3089 15.145 11.3693 16.2175 10.872L18.8186 9.65971C20.0905 9.06846 21.5961 9.18762 22.758 9.96908L31.9498 16.1795L36.4392 14.0872C38.7492 13.0101 41.3434 12.8978 43.7359 13.7664C46.1307 14.6395 48.0442 16.3926 49.1213 18.7026L49.6896 19.9149C50.6246 21.9201 49.7538 24.3126 47.7509 25.2453L16.5957 39.7745C15.7477 40.1687 14.8448 40.368 13.9373 40.368L13.935 40.3703ZM10.8505 24.8145C10.768 24.8145 10.6855 24.8328 10.6075 24.8672L7.73837 26.2055C7.45192 26.3407 7.32817 26.6822 7.46108 26.9687L11.334 35.2737C11.6571 35.968 12.2323 36.4928 12.9519 36.7541C13.6715 37.0222 14.4507 36.9832 15.1427 36.6601L46.298 22.131C46.5844 21.9957 46.7082 21.6566 46.5752 21.3678L46.0069 20.1555C45.3171 18.6751 44.0957 17.5545 42.5625 16.9976C41.0317 16.4407 39.3748 16.5141 37.8944 17.2016L32.5227 19.7064C31.9727 19.9585 31.3334 19.9126 30.8338 19.5712L20.8352 12.8176C20.6702 12.7099 20.4571 12.6916 20.2715 12.7741L17.6682 13.9864C17.4596 14.0849 17.384 14.2591 17.3588 14.353C17.3313 14.4493 17.3084 14.6395 17.439 14.832L22.4807 22.1768C22.7671 22.5962 22.8565 23.1164 22.7213 23.6022C22.5884 24.0903 22.2469 24.496 21.7886 24.7068L17.1892 26.8518C15.8073 27.5003 14.1986 27.3078 13.0023 26.3591L11.208 24.936C11.1025 24.8535 10.9765 24.8099 10.8505 24.8099V24.8145ZM49.8455 45.8337C49.8455 44.8849 49.0755 44.1149 48.1267 44.1149H6.87442C5.92567 44.1149 5.15567 44.8849 5.15567 45.8337C5.15567 46.7824 5.92567 47.5524 6.87442 47.5524H48.1244C49.0732 47.5524 49.8455 46.7824 49.8455 45.8337Z" fill="#112D55"/>
</svg>
