<svg width="53" height="53" viewBox="0 0 53 53" fill="none" xmlns="http://www.w3.org/2000/svg">
<path d="M26.5 52C12.4167 52 1 40.5833 1 26.5C1 12.4167 12.4167 1 26.5 1C40.5833 1 52 12.4167 52 26.5C52 40.5833 40.5833 52 26.5 52Z" fill="white" fill-opacity="0.35" stroke="white" stroke-width="0.5"/>
<path d="M26.5 46.1562C15.6442 46.1562 6.84375 37.3558 6.84375 26.5C6.84375 15.6442 15.6442 6.84375 26.5 6.84375C37.3558 6.84375 46.1562 15.6442 46.1562 26.5C46.1562 37.3558 37.3558 46.1562 26.5 46.1562Z" fill="white" fill-opacity="0.35" stroke="white" stroke-width="0.5"/>
<path d="M26.5039 39.7773C19.1689 39.7773 13.2227 33.8311 13.2227 26.4961C13.2227 19.1611 19.1689 13.2148 26.5039 13.2148C33.8389 13.2148 39.7852 19.1611 39.7852 26.4961C39.7852 33.8311 33.8389 39.7773 26.5039 39.7773Z" fill="white"/>
<path d="M26.5 40.3125C18.8716 40.3125 12.6875 34.1284 12.6875 26.5C12.6875 18.8716 18.8716 12.6875 26.5 12.6875C34.1284 12.6875 40.3125 18.8716 40.3125 26.5C40.3125 34.1284 34.1284 40.3125 26.5 40.3125Z" fill="white" fill-opacity="0.35" stroke="white" stroke-width="0.5"/>
<path d="M29.0701 22.0499C28.9967 22.0107 28.9148 21.9902 28.8317 21.9902C28.7485 21.9902 28.6666 22.0107 28.5932 22.0499L22.9094 25.9043C22.8377 25.94 22.7775 25.995 22.7353 26.0631C22.6932 26.1311 22.6709 26.2096 22.6709 26.2897C22.6709 26.3697 22.6932 26.4482 22.7353 26.5162C22.7775 26.5843 22.8377 26.6393 22.9094 26.675L28.5932 30.5294C28.6666 30.5685 28.7485 30.5889 28.8317 30.5889C28.9148 30.5889 28.9967 30.5685 29.0701 30.5294C29.141 30.4927 29.2006 30.4375 29.2426 30.3696C29.2847 30.3017 29.3075 30.2237 29.3086 30.1438V22.4352C29.3075 22.3554 29.2847 22.2774 29.2427 22.2095C29.2007 22.1417 29.141 22.0865 29.0701 22.0499Z" fill="#FD346E"/>
<path d="M29.0701 22.0499C28.9967 22.0107 28.9148 21.9902 28.8317 21.9902C28.7485 21.9902 28.6666 22.0107 28.5932 22.0499L22.9094 25.9043C22.8377 25.94 22.7775 25.995 22.7353 26.0631C22.6932 26.1311 22.6709 26.2096 22.6709 26.2897C22.6709 26.3697 22.6932 26.4482 22.7353 26.5162C22.7775 26.5843 22.8377 26.6393 22.9094 26.675L28.5932 30.5294C28.6666 30.5685 28.7485 30.5889 28.8317 30.5889C28.9148 30.5889 28.9967 30.5685 29.0701 30.5294C29.141 30.4927 29.2006 30.4375 29.2426 30.3696C29.2847 30.3017 29.3075 30.2237 29.3086 30.1438V22.4352C29.3075 22.3554 29.2847 22.2774 29.2427 22.2095C29.2007 22.1417 29.141 22.0865 29.0701 22.0499Z" fill="#0A909B"/>
</svg>
