<svg width="30" height="30" viewBox="0 0 30 30" fill="none" xmlns="http://www.w3.org/2000/svg">
<path d="M25.5758 5.59934C25.0088 2.37756 22.2092 0 18.8904 0C17.6613 0 16.476 0.325605 15.4313 0.945996C15.4278 0.944355 15.4242 0.942891 15.4207 0.94125C14.6483 0.58834 13.8053 0.403594 12.9521 0.403594C11.5647 0.403594 10.2108 0.895137 9.1399 1.78764C8.26574 2.51613 7.61049 3.48416 7.25166 4.5624C4.18258 4.85795 1.77344 7.49133 1.77344 10.6873C1.7742 13.0533 3.23014 15.0855 5.2927 15.9369C5.34432 15.3435 5.59973 14.7924 6.02594 14.3663L8.51066 11.8815C8.99008 11.4021 9.62746 11.138 10.3054 11.138C10.547 11.138 10.7833 11.1715 11.0092 11.2364C11.4427 10.4561 12.2756 9.92678 13.2297 9.92678H16.7437C17.6978 9.92678 18.5307 10.456 18.9642 11.2364C19.1901 11.1715 19.4264 11.138 19.668 11.138C20.346 11.138 20.9833 11.4021 21.4628 11.8815L23.9475 14.3663C24.3761 14.7948 24.6319 15.3498 24.6815 15.947C26.7578 15.1016 28.2253 13.0618 28.2253 10.6853C28.2253 8.65102 27.2196 6.7384 25.5758 5.59934Z" fill="#0A909B"/>
<path d="M23.3632 18.305H21.1115L22.7037 16.7128C23.0085 16.408 23.0085 15.9139 22.7037 15.6092L20.219 13.1245C19.9142 12.8197 19.4201 12.8197 19.1154 13.1245L17.5232 14.7166V12.4649C17.5232 12.034 17.1738 11.6846 16.7429 11.6846H14.9859H13.2289C12.7979 11.6846 12.4485 12.034 12.4485 12.4649V14.7166L10.8563 13.1245C10.5516 12.8197 10.0575 12.8197 9.75273 13.1245L7.26801 15.6092C6.96326 15.9139 6.96326 16.408 7.26801 16.7128L8.86018 18.305H6.60848C6.17752 18.305 5.82812 18.6544 5.82812 19.0853V22.5992C5.82812 23.0302 6.17752 23.3796 6.60848 23.3796H8.86018L7.26801 24.9718C6.96326 25.2765 6.96326 25.7706 7.26801 26.0754L9.75273 28.5601C10.0575 28.8648 10.5516 28.8648 10.8563 28.5601L12.4485 26.9679V29.2196C12.4485 29.6506 12.7979 29.9999 13.2289 29.9999H14.9859H16.7429C17.1738 29.9999 17.5232 29.6505 17.5232 29.2196V26.9679L19.1154 28.5601C19.4201 28.8648 19.9142 28.8648 20.219 28.5601L22.7037 26.0754C23.0085 25.7706 23.0085 25.2765 22.7037 24.9718L21.1115 23.3796H23.3632C23.7942 23.3796 24.1436 23.0302 24.1436 22.5992V19.0853C24.1436 18.6544 23.7943 18.305 23.3632 18.305ZM14.9859 24.3828C13.0305 24.3828 11.4454 22.7977 11.4454 20.8423C11.4454 18.8869 13.0305 17.3018 14.9859 17.3018C16.9413 17.3018 18.5264 18.8869 18.5264 20.8423C18.5264 22.7977 16.9413 24.3828 14.9859 24.3828Z" fill="#0A909B"/>
<path d="M14.9858 22.625C15.9704 22.625 16.7686 21.8269 16.7686 20.8423C16.7686 19.8577 15.9704 19.0596 14.9858 19.0596C14.0013 19.0596 13.2031 19.8577 13.2031 20.8423C13.2031 21.8269 14.0013 22.625 14.9858 22.625Z" fill="#0A909B"/>
</svg>
