<svg width="78" height="78" viewBox="0 0 78 78" fill="none" xmlns="http://www.w3.org/2000/svg">
<g filter="url(#filter0_d_657_14366)">
<path d="M4 35C4 15.67 19.67 0 39 0H74V35C74 54.33 58.33 70 39 70C19.67 70 4 54.33 4 35Z" fill="#0A909B"/>
<g clip-path="url(#clip0_657_14366)">
<path d="M34.0195 37.9883C33.4694 37.9883 33.0234 38.4343 33.0234 38.9844V40.9766C33.0234 41.5267 33.4694 41.9727 34.0195 41.9727C34.5696 41.9727 35.0156 41.5267 35.0156 40.9766V38.9844C35.0156 38.4343 34.5696 37.9883 34.0195 37.9883Z" fill="white"/>
<path d="M43.9805 41.9727C44.5306 41.9727 44.9766 41.5267 44.9766 40.9766V38.9844C44.9766 38.4343 44.5306 37.9883 43.9805 37.9883C43.4304 37.9883 42.9844 38.4343 42.9844 38.9844V40.9766C42.9844 41.5267 43.4304 41.9727 43.9805 41.9727Z" fill="white"/>
<path d="M40.0625 25.0391H50.9531C51.5032 25.0391 51.9492 24.5931 51.9492 24.043C51.9492 23.4929 51.5032 23.0469 50.9531 23.0469H40.0625C39.5124 23.0469 39.0664 23.4929 39.0664 24.043C39.0664 24.5931 39.5124 25.0391 40.0625 25.0391Z" fill="white"/>
<path d="M56 29.6875V22.3164C56 19.9363 54.0637 18 51.6836 18H39.332C36.952 18 35.0156 19.9363 35.0156 22.3164V30.0195H33.6875C30.0466 30.0195 26.9932 32.5808 26.2331 35.9961H26.0508V29.8482C27.2102 29.437 28.043 28.3298 28.043 27.0312C28.043 25.3835 26.7024 24.043 25.0547 24.043C23.4069 24.043 22.0664 25.3835 22.0664 27.0312C22.0664 28.3298 22.8992 29.437 24.0586 29.8482V36.1449C22.8648 36.5368 22 37.6612 22 38.9844V42.9688C22 44.6165 23.3405 45.957 24.9883 45.957H26.2186C26.9536 49.4054 30.0231 52 33.6875 52H44.3125C47.9769 52 51.0464 49.4054 51.7814 45.957H53.0117C54.6595 45.957 56 44.6165 56 42.9688V38.9844C56 37.3366 54.6595 35.9961 53.0117 35.9961H51.7665C51.6117 35.3002 51.3605 34.6297 51.0197 34.0039H51.6836C54.0637 34.0039 56 32.0676 56 29.6875ZM37.0078 22.3164C37.0078 21.0348 38.0505 19.9922 39.332 19.9922H51.6836C52.9652 19.9922 54.0078 21.0348 54.0078 22.3164V29.6875C54.0078 30.9691 52.9652 32.0117 51.6836 32.0117H39.9961C39.8414 32.0117 39.689 32.0477 39.5506 32.1168L37.0078 33.3883V22.3164ZM25.0547 26.0352C25.6039 26.0352 26.0508 26.482 26.0508 27.0312C26.0508 27.5805 25.6039 28.0273 25.0547 28.0273C24.5054 28.0273 24.0586 27.5805 24.0586 27.0312C24.0586 26.482 24.5054 26.0352 25.0547 26.0352ZM23.9922 42.9688V38.9844C23.9922 38.4351 24.439 37.9883 24.9883 37.9883H26.0508V43.9648H24.9883C24.439 43.9648 23.9922 43.518 23.9922 42.9688ZM54.0078 38.9844V42.9688C54.0078 43.518 53.561 43.9648 53.0117 43.9648H51.9492V37.9883H53.0117C53.561 37.9883 54.0078 38.4351 54.0078 38.9844ZM49.957 37.6562V44.3633C49.957 47.4757 47.4249 50.0078 44.3125 50.0078H33.6875C30.5751 50.0078 28.043 47.4757 28.043 44.3633V37.6562C28.043 34.5439 30.5751 32.0117 33.6875 32.0117H35.0156V35C35.0156 35.7392 35.7954 36.2219 36.4572 35.8909L40.2312 34.0039H48.6144C49.4802 35.0228 49.957 36.3151 49.957 37.6562Z" fill="white"/>
<path d="M40.0625 29.0234H50.9531C51.5032 29.0234 51.9492 28.5775 51.9492 28.0273C51.9492 27.4772 51.5032 27.0312 50.9531 27.0312H40.0625C39.5124 27.0312 39.0664 27.4772 39.0664 28.0273C39.0664 28.5775 39.5124 29.0234 40.0625 29.0234Z" fill="white"/>
<path d="M36.0117 44.9609C36.0117 45.511 36.4577 45.957 37.0078 45.957H40.9922C41.5423 45.957 41.9883 45.511 41.9883 44.9609C41.9883 44.4108 41.5423 43.9648 40.9922 43.9648H37.0078C36.4577 43.9648 36.0117 44.4108 36.0117 44.9609Z" fill="white"/>
</g>
</g>
<defs>
<filter id="filter0_d_657_14366" x="0" y="0" width="78" height="78" filterUnits="userSpaceOnUse" color-interpolation-filters="sRGB">
<feFlood flood-opacity="0" result="BackgroundImageFix"/>
<feColorMatrix in="SourceAlpha" type="matrix" values="0 0 0 0 0 0 0 0 0 0 0 0 0 0 0 0 0 0 127 0" result="hardAlpha"/>
<feOffset dy="4"/>
<feGaussianBlur stdDeviation="2"/>
<feComposite in2="hardAlpha" operator="out"/>
<feColorMatrix type="matrix" values="0 0 0 0 0 0 0 0 0 0 0 0 0 0 0 0 0 0 0.25 0"/>
<feBlend mode="normal" in2="BackgroundImageFix" result="effect1_dropShadow_657_14366"/>
<feBlend mode="normal" in="SourceGraphic" in2="effect1_dropShadow_657_14366" result="shape"/>
</filter>
<clipPath id="clip0_657_14366">
<rect width="34" height="34" fill="white" transform="translate(22 18)"/>
</clipPath>
</defs>
</svg>
