<svg width="24" height="24" viewBox="0 0 24 24" fill="none" xmlns="http://www.w3.org/2000/svg">
<path d="M2.75177 18.6498C2.34177 18.6498 2.00177 18.3098 2.00177 17.8998V12.1998C1.95177 9.4898 2.96177 6.9298 4.84177 5.0098C6.72177 3.0998 9.24177 2.0498 11.9518 2.0498C17.4918 2.0498 22.0018 6.5598 22.0018 12.0998V17.7998C22.0018 18.2098 21.6618 18.5498 21.2518 18.5498C20.8418 18.5498 20.5018 18.2098 20.5018 17.7998V12.0998C20.5018 7.3898 16.6718 3.5498 11.9518 3.5498C9.64177 3.5498 7.50177 4.43981 5.91177 6.0598C4.31177 7.68981 3.46177 9.85981 3.50177 12.1798V17.8898C3.50177 18.3098 3.17177 18.6498 2.75177 18.6498Z" fill="white"/>
<path d="M5.94 12.4502H5.81C3.71 12.4502 2 14.1602 2 16.2602V18.1402C2 20.2402 3.71 21.9502 5.81 21.9502H5.94C8.04 21.9502 9.75 20.2402 9.75 18.1402V16.2602C9.75 14.1602 8.04 12.4502 5.94 12.4502Z" fill="white"/>
<path d="M18.19 12.4502H18.06C15.96 12.4502 14.25 14.1602 14.25 16.2602V18.1402C14.25 20.2402 15.96 21.9502 18.06 21.9502H18.19C20.29 21.9502 22 20.2402 22 18.1402V16.2602C22 14.1602 20.29 12.4502 18.19 12.4502Z" fill="white"/>
</svg>
