<svg width="20" height="20" viewBox="0 0 20 20" fill="none" xmlns="http://www.w3.org/2000/svg">
<g clip-path="url(#clip0_657_13756)">
<path d="M12.707 14.6758V18.5408C12.707 18.8108 12.5337 19.0499 12.277 19.1349C12.2129 19.1558 12.147 19.1658 12.082 19.1658C11.887 19.1658 11.6987 19.0741 11.5787 18.9108L9.31786 15.8341L12.707 14.6758Z" fill="white"/>
<path d="M0.262463 0.115907C0.45413 -0.0199262 0.705795 -0.0382595 0.914129 0.0709072L19.6641 9.86257C19.8858 9.97841 20.0166 10.2151 19.9983 10.4642C19.9791 10.7142 19.8133 10.9276 19.5775 11.0084L14.365 12.7901L3.26413 3.29841L11.8541 13.6476L3.1183 16.6334C3.0533 16.6551 2.98496 16.6667 2.91663 16.6667C2.8033 16.6667 2.6908 16.6359 2.59163 16.5759C2.4333 16.4792 2.3258 16.3167 2.2983 16.1342L0.00662804 0.717574C-0.0275383 0.484241 0.070797 0.252574 0.262463 0.115907Z" fill="white"/>
</g>
<defs>
<clipPath id="clip0_657_13756">
<rect width="20" height="20" fill="white" transform="matrix(-1 0 0 1 20 0)"/>
</clipPath>
</defs>
</svg>
