<svg width="60" height="61" viewBox="0 0 60 61" fill="none" xmlns="http://www.w3.org/2000/svg">
<path fill-rule="evenodd" clip-rule="evenodd" d="M30 60.735C13.4431 60.735 0 47.313 0 30.7562C0 14.1993 13.4431 0.777344 30 0.777344C46.5569 0.777344 60 14.1993 60 30.7562C60 47.313 46.5569 60.735 30 60.735Z" fill="#0A909B"/>
<path d="M37.5 43.8721H22.5C21.7541 43.8721 21.0387 43.576 20.5113 43.0489C19.9838 42.5219 19.6875 41.807 19.6875 41.0616V20.4511C19.6875 19.7057 19.9838 18.9909 20.5113 18.4638C21.0387 17.9367 21.7541 17.6406 22.5 17.6406H37.5C38.2459 17.6406 38.9613 17.9367 39.4887 18.4638C40.0162 18.9909 40.3125 19.7057 40.3125 20.4511V41.0616C40.3125 41.807 40.0162 42.5219 39.4887 43.0489C38.9613 43.576 38.2459 43.8721 37.5 43.8721ZM22.5 19.5143C22.2514 19.5143 22.0129 19.613 21.8371 19.7887C21.6613 19.9644 21.5625 20.2027 21.5625 20.4511V41.0616C21.5625 41.3101 21.6613 41.5484 21.8371 41.724C22.0129 41.8997 22.2514 41.9984 22.5 41.9984H37.5C37.7486 41.9984 37.9871 41.8997 38.1629 41.724C38.3387 41.5484 38.4375 41.3101 38.4375 41.0616V20.4511C38.4375 20.2027 38.3387 19.9644 38.1629 19.7887C37.9871 19.613 37.7486 19.5143 37.5 19.5143H22.5Z" fill="white"/>
<path d="M30 26.0723C28.7021 26.0723 27.4333 26.4569 26.3541 27.1775C25.2749 27.8981 24.4337 28.9223 23.937 30.1205C23.4403 31.3188 23.3104 32.6374 23.5636 33.9095C23.8168 35.1816 24.4418 36.3501 25.3596 37.2673C26.2774 38.1844 27.4467 38.809 28.7197 39.062C29.9927 39.315 31.3122 39.1852 32.5114 38.6888C33.7105 38.1925 34.7354 37.3519 35.4565 36.2735C36.1776 35.1951 36.5625 33.9272 36.5625 32.6301C36.5605 30.8915 35.8685 29.2246 34.6382 27.9952C33.4079 26.7658 31.7399 26.0742 30 26.0723ZM34.5938 31.6933H32.7853C32.7434 30.6336 32.5743 29.5828 32.2819 28.5633C32.8691 28.8891 33.3795 29.3371 33.7784 29.8771C34.1772 30.4172 34.4553 31.0365 34.5938 31.6933ZM29.0906 33.567H30.9113C30.9209 34.8449 30.6075 36.1045 30 37.2291C29.3928 36.1044 29.0807 34.8448 29.0906 33.567ZM29.0906 31.6933C29.0804 30.4156 29.3932 29.1559 30 28.0312C30.6072 29.1558 30.9203 30.4155 30.9103 31.6933H29.0906ZM27.7191 28.5633C27.4263 29.5827 27.2569 30.6336 27.2147 31.6933H25.4063C25.5447 31.0365 25.8228 30.4172 26.2217 29.8771C26.6205 29.3371 27.1309 28.8891 27.7181 28.5633H27.7191ZM25.4063 33.567H27.2138C27.2557 34.6267 27.4247 35.6775 27.7172 36.697C27.1301 36.3711 26.6199 35.923 26.2212 35.383C25.8225 34.843 25.5446 34.2237 25.4063 33.567ZM32.2809 36.697C32.5737 35.6775 32.7431 34.6267 32.7853 33.567H34.5938C34.4553 34.2238 34.1772 34.8431 33.7784 35.3831C33.3795 35.9232 32.8682 36.3712 32.2809 36.697Z" fill="white"/>
<path d="M34.6875 24.1979H25.3125C25.0639 24.1979 24.8254 24.0992 24.6496 23.9235C24.4738 23.7478 24.375 23.5095 24.375 23.2611C24.375 23.0126 24.4738 22.7743 24.6496 22.5986C24.8254 22.4229 25.0639 22.3242 25.3125 22.3242H34.6875C34.9361 22.3242 35.1746 22.4229 35.3504 22.5986C35.5262 22.7743 35.625 23.0126 35.625 23.2611C35.625 23.5095 35.5262 23.7478 35.3504 23.9235C35.1746 24.0992 34.9361 24.1979 34.6875 24.1979Z" fill="white"/>
</svg>
