<svg width="19" height="19" viewBox="0 0 19 19" fill="none" xmlns="http://www.w3.org/2000/svg">
<g clip-path="url(#clip0_399_964)">
<path d="M6.80117 8.5308C6.92412 7.59818 7.37351 6.91438 7.71689 6.51407C7.78034 6.44013 7.89423 6.44013 7.95768 6.51407C8.3011 6.91438 8.75049 7.59818 8.8734 8.5308C8.88583 8.62501 8.81117 8.70833 8.71613 8.70833H6.95844C6.86344 8.70833 6.78874 8.62501 6.80117 8.5308ZM6.15933 8.56623C6.23327 7.85682 6.47065 7.2658 6.73918 6.80362C6.81954 6.66536 6.66892 6.50774 6.52813 6.58358C5.80106 6.97514 5.26811 7.68217 5.11322 8.52023C5.09517 8.61792 5.16963 8.70837 5.26898 8.70837H6.00206C6.08317 8.70833 6.1509 8.6469 6.15933 8.56623ZM6.8058 9.52244C6.88054 10.0506 7.099 10.8386 7.71907 11.5452C7.78137 11.6162 7.8932 11.6162 7.9555 11.5452C8.57557 10.8386 8.79403 10.0506 8.86877 9.52244C8.88227 9.42693 8.8084 9.34167 8.71194 9.34167H6.96263C6.86617 9.34167 6.7923 9.42693 6.8058 9.52244ZM9.67255 8.70833H10.4056C10.505 8.70833 10.5794 8.61792 10.5614 8.52019C10.4065 7.68217 9.87355 6.9751 9.14648 6.58354C9.00569 6.5077 8.85507 6.66532 8.93543 6.80358C9.20396 7.26576 9.44134 7.85678 9.51528 8.56619C9.52371 8.6469 9.59144 8.70833 9.67255 8.70833ZM6.00578 9.34167H5.26898C5.16963 9.34167 5.09513 9.43207 5.11322 9.52977C5.26763 10.3654 5.79797 11.0707 6.52179 11.463C6.66018 11.538 6.81115 11.3822 6.73333 11.2454C6.35629 10.5823 6.21435 9.93067 6.16301 9.48207C6.15386 9.40199 6.08638 9.34167 6.00578 9.34167ZM14.2498 4.67083V17.4167C14.2498 18.2899 13.5397 19 12.6665 19H2.69147C1.99283 19 1.4248 18.432 1.4248 17.7333V4.35417C1.4248 3.65552 1.99283 3.0875 2.69147 3.0875H12.6665C13.5397 3.0875 14.2498 3.79763 14.2498 4.67083ZM9.7373 16.15C9.7373 15.9751 9.59552 15.8333 9.42064 15.8333H6.25397C6.07909 15.8333 5.9373 15.9751 5.9373 16.15C5.9373 16.3249 6.07909 16.4667 6.25397 16.4667H9.42064C9.59552 16.4667 9.7373 16.3249 9.7373 16.15ZM10.8061 14.1708C10.8061 13.996 10.6643 13.8542 10.4894 13.8542H5.18522C5.01034 13.8542 4.86855 13.996 4.86855 14.1708C4.86855 14.3457 5.01034 14.4875 5.18522 14.4875H10.4894C10.6643 14.4875 10.8061 14.3457 10.8061 14.1708ZM11.2415 9.025C11.2415 7.29588 9.92137 5.68682 7.847 5.62107C6.01774 5.61022 4.43314 7.10343 4.43314 9.025C4.43314 10.8972 5.95539 12.4292 7.8373 12.4292H7.83758C9.71451 12.429 11.2415 10.902 11.2415 9.025ZM9.5116 9.48207C9.46022 9.93067 9.31832 10.5823 8.94128 11.2454C8.86346 11.3822 9.01443 11.5379 9.15282 11.463C9.87668 11.0707 10.407 10.3654 10.5614 9.52977C10.5794 9.43207 10.5049 9.34167 10.4056 9.34167H9.66883C9.58823 9.34167 9.52074 9.40199 9.5116 9.48207ZM17.2581 5.89792C17.433 5.89792 17.5748 6.0397 17.5748 6.21458V17.7333C17.5748 18.4329 17.0077 19 16.3081 19H14.8597C14.6169 19 14.4628 18.7369 14.5847 18.5269C14.7768 18.1959 14.8831 17.8149 14.8831 17.4167V6.21458C14.8831 6.0397 15.0249 5.89792 15.1998 5.89792H15.5956C15.7775 5.89792 15.9235 5.74461 15.9116 5.56019C15.9007 5.39188 15.7535 5.26458 15.5848 5.26458H15.1998C15.0249 5.26458 14.8831 5.1228 14.8831 4.94792V4.67083C14.8831 3.4466 13.8907 2.45417 12.6665 2.45417H12.6269C12.452 2.45417 12.3102 2.31238 12.3102 2.1375V1.86042C12.3102 1.67853 12.1569 1.53251 11.9725 1.54442C11.8042 1.55531 11.6769 1.7026 11.6769 1.87126V2.1375C11.6769 2.31238 11.5351 2.45417 11.3602 2.45417H9.30189C9.12701 2.45417 8.98522 2.31238 8.98522 2.1375V1.26667C8.98522 0.56711 9.55233 0 10.2519 0H16.3081C17.0077 0 17.5748 0.56711 17.5748 1.26667V4.94792C17.5748 5.1228 17.433 5.26458 17.2581 5.26458H17.1898C17.0212 5.26458 16.8739 5.39188 16.863 5.56019C16.8511 5.74461 16.9971 5.89792 17.179 5.89792H17.2581ZM16.1894 2.25625C16.1894 2.08137 16.0476 1.93958 15.8727 1.93958C15.6978 1.93958 15.5561 2.08137 15.5561 2.25625V3.72083C15.5561 3.89571 15.6978 4.0375 15.8727 4.0375C16.0476 4.0375 16.1894 3.89571 16.1894 3.72083V2.25625Z" fill="white"/>
</g>
<defs>
<clipPath id="clip0_399_964">
<rect width="19" height="19" fill="white"/>
</clipPath>
</defs>
</svg>
