<svg width="60" height="60" viewBox="0 0 60 60" fill="none" xmlns="http://www.w3.org/2000/svg">
<circle opacity="0.1" cx="30" cy="30" r="30" fill="#0A909B"/>
<path d="M38 44H22C21.2044 44 20.4413 43.6839 19.8787 43.1213C19.3161 42.5587 19 41.7956 19 41V19C19 18.2044 19.3161 17.4413 19.8787 16.8787C20.4413 16.3161 21.2044 16 22 16H38C38.7956 16 39.5587 16.3161 40.1213 16.8787C40.6839 17.4413 41 18.2044 41 19V41C41 41.7956 40.6839 42.5587 40.1213 43.1213C39.5587 43.6839 38.7956 44 38 44ZM22 18C21.7348 18 21.4804 18.1054 21.2929 18.2929C21.1054 18.4804 21 18.7348 21 19V41C21 41.2652 21.1054 41.5196 21.2929 41.7071C21.4804 41.8946 21.7348 42 22 42H38C38.2652 42 38.5196 41.8946 38.7071 41.7071C38.8946 41.5196 39 41.2652 39 41V19C39 18.7348 38.8946 18.4804 38.7071 18.2929C38.5196 18.1054 38.2652 18 38 18H22Z" fill="#0B1427"/>
<path d="M30 25C28.6155 25 27.2622 25.4105 26.111 26.1797C24.9599 26.9489 24.0627 28.0421 23.5328 29.3212C23.003 30.6003 22.8644 32.0078 23.1345 33.3656C23.4046 34.7235 24.0713 35.9708 25.0503 36.9497C26.0292 37.9287 27.2765 38.5954 28.6344 38.8655C29.9922 39.1356 31.3997 38.997 32.6788 38.4672C33.9579 37.9373 35.0511 37.0401 35.8203 35.889C36.5895 34.7378 37 33.3845 37 32C36.9979 30.1441 36.2597 28.3649 34.9474 27.0526C33.6351 25.7403 31.8559 25.0021 30 25ZM34.9 31H32.971C32.9263 29.8689 32.746 28.7472 32.434 27.659C33.0604 28.0067 33.6048 28.485 34.0302 29.0614C34.4557 29.6378 34.7523 30.2989 34.9 31ZM29.03 33H30.972C30.9823 34.3641 30.648 35.7086 30 36.909C29.3524 35.7085 29.0194 34.364 29.03 33ZM29.03 31C29.0191 29.6361 29.3527 28.2916 30 27.091C30.6476 28.2915 30.9816 29.636 30.971 31H29.03ZM27.567 27.659C27.2547 28.7471 27.0741 29.8688 27.029 31H25.1C25.2477 30.2989 25.5443 29.6378 25.9698 29.0614C26.3952 28.485 26.9396 28.0067 27.566 27.659H27.567ZM25.1 33H27.028C27.0727 34.1311 27.253 35.2528 27.565 36.341C26.9388 35.9932 26.3946 35.5149 25.9693 34.9385C25.544 34.362 25.2476 33.701 25.1 33ZM32.433 36.341C32.7453 35.2529 32.9259 34.1312 32.971 33H34.9C34.7523 33.7011 34.4557 34.3622 34.0302 34.9386C33.6048 35.515 33.0594 35.9933 32.433 36.341Z" fill="#0A909B"/>
<path d="M35 23H25C24.7348 23 24.4804 22.8946 24.2929 22.7071C24.1054 22.5196 24 22.2652 24 22C24 21.7348 24.1054 21.4804 24.2929 21.2929C24.4804 21.1054 24.7348 21 25 21H35C35.2652 21 35.5196 21.1054 35.7071 21.2929C35.8946 21.4804 36 21.7348 36 22C36 22.2652 35.8946 22.5196 35.7071 22.7071C35.5196 22.8946 35.2652 23 35 23Z" fill="#0B1427"/>
</svg>
